<svg xmlns="http://www.w3.org/2000/svg" width="73.61" height="73.61" viewBox="0 0 73.61 73.61">
  <g id="_003-cpu" data-name="003-cpu" transform="translate(-0.001)">
    <g id="Grupo_40" data-name="Grupo 40" transform="translate(0.001)">
      <g id="Grupo_39" data-name="Grupo 39">
        <path id="Caminho_505" data-name="Caminho 505" d="M61.94,37.884h6.219a2.834,2.834,0,1,0,0-2.157H61.94V26.3h6.219a2.834,2.834,0,1,0,0-2.157H61.94V12.75a1.078,1.078,0,0,0-1.078-1.078H56.23a1.078,1.078,0,1,0,0,2.157h3.553V25.217h0V36.8h0V48.392h0V59.783H13.829V48.394h0V36.806h0V25.218h0V13.828H51.982a1.078,1.078,0,1,0,0-2.157H49.474V5.453a2.834,2.834,0,1,0-2.156,0v6.218H37.886V5.452a2.834,2.834,0,1,0-2.157,0v6.218H26.3V5.452a2.834,2.834,0,1,0-2.157,0v6.218H12.751a1.078,1.078,0,0,0-1.078,1.078V24.138H5.454a2.834,2.834,0,1,0,0,2.156h6.218v9.431H5.454a2.834,2.834,0,1,0,0,2.157h6.218v9.431H5.454a2.834,2.834,0,1,0,0,2.157h6.218v11.39a1.078,1.078,0,0,0,1.078,1.078H24.138v6.219a2.834,2.834,0,1,0,2.156,0V61.939h9.431v6.219a2.834,2.834,0,1,0,2.156,0V61.939h9.431v6.219a2.834,2.834,0,1,0,2.156,0V61.939H60.861a1.078,1.078,0,0,0,1.078-1.078V49.472h6.218a2.834,2.834,0,1,0,0-2.157H61.939V37.884Zm8.838-1.756a.677.677,0,1,1-.677.677A.678.678,0,0,1,70.778,36.128Zm0-11.588a.677.677,0,1,1-.677.677A.678.678,0,0,1,70.778,24.54ZM48.394,2.157A.677.677,0,0,1,48.4,3.51H48.39a.677.677,0,0,1,0-1.354Zm-11.588,0a.677.677,0,0,1,.005,1.354H36.8a.677.677,0,0,1,0-1.354Zm-11.588,0a.677.677,0,0,1,.005,1.354h-.009a.677.677,0,0,1,0-1.354ZM2.835,25.894a.677.677,0,1,1,.677-.677A.678.678,0,0,1,2.835,25.894Zm0,11.588a.677.677,0,1,1,.677-.677A.678.678,0,0,1,2.835,37.482Zm0,11.588a.677.677,0,1,1,.677-.677A.678.678,0,0,1,2.835,49.07ZM25.218,71.454a.677.677,0,0,1,0-1.354h.007a.677.677,0,0,1,0,1.354Zm11.588,0a.677.677,0,0,1,0-1.354h.007a.677.677,0,0,1,0,1.354Zm11.588,0a.677.677,0,0,1,0-1.354H48.4a.677.677,0,0,1,0,1.354ZM70.778,47.716a.677.677,0,1,1-.677.677A.678.678,0,0,1,70.778,47.716Z" transform="translate(-0.001)" fill="#42e9d6"/>
      </g>
    </g>
    <g id="Grupo_42" data-name="Grupo 42" transform="translate(15.232 15.231)">
      <g id="Grupo_41" data-name="Grupo 41">
        <path id="Caminho_506" data-name="Caminho 506" d="M148.009,105.938H107.016a1.078,1.078,0,0,0-1.078,1.078v29.949a1.078,1.078,0,1,0,2.157,0V108.095H146.93V146.93H108.095v-5.717a1.078,1.078,0,1,0-2.157,0v6.8a1.078,1.078,0,0,0,1.078,1.078h40.993a1.078,1.078,0,0,0,1.078-1.078V107.016A1.078,1.078,0,0,0,148.009,105.938Z" transform="translate(-105.938 -105.938)" fill="#42e9d6"/>
      </g>
    </g>
    <g id="Grupo_44" data-name="Grupo 44" transform="translate(28.35 28.349)">
      <g id="Grupo_43" data-name="Grupo 43">
        <path id="Caminho_507" data-name="Caminho 507" d="M213.018,197.184H198.262a1.078,1.078,0,0,0-1.078,1.078v14.756a1.078,1.078,0,0,0,1.078,1.078h5.685a1.078,1.078,0,0,0,0-2.157h-4.607v-12.6h12.6v12.6H208.2a1.078,1.078,0,0,0,0,2.157h4.822a1.078,1.078,0,0,0,1.078-1.078V198.262A1.078,1.078,0,0,0,213.018,197.184Z" transform="translate(-197.184 -197.184)" fill="#42e9d6"/>
      </g>
    </g>
    <g id="Grupo_46" data-name="Grupo 46" transform="translate(20.649 20.648)">
      <g id="Grupo_45" data-name="Grupo 45">
        <path id="Caminho_508" data-name="Caminho 508" d="M146.431,143.617H144.7a1.078,1.078,0,0,0-1.078,1.078v1.736a1.078,1.078,0,0,0,1.078,1.078h1.736a1.078,1.078,0,0,0,1.078-1.078V144.7A1.078,1.078,0,0,0,146.431,143.617Z" transform="translate(-143.617 -143.617)" fill="#42e9d6"/>
      </g>
    </g>
    <g id="Grupo_48" data-name="Grupo 48" transform="translate(26.333 20.648)">
      <g id="Grupo_47" data-name="Grupo 47">
        <path id="Caminho_509" data-name="Caminho 509" d="M185.971,143.617h-1.736a1.078,1.078,0,0,0-1.078,1.078v1.736a1.078,1.078,0,0,0,1.078,1.078h1.736a1.078,1.078,0,0,0,1.078-1.078V144.7A1.078,1.078,0,0,0,185.971,143.617Z" transform="translate(-183.157 -143.617)" fill="#42e9d6"/>
      </g>
    </g>
    <g id="Grupo_50" data-name="Grupo 50" transform="translate(32.018 20.648)">
      <g id="Grupo_49" data-name="Grupo 49">
        <path id="Caminho_510" data-name="Caminho 510" d="M225.509,143.617h-1.736A1.078,1.078,0,0,0,222.7,144.7v1.736a1.078,1.078,0,0,0,1.078,1.078h1.736a1.078,1.078,0,0,0,1.078-1.078V144.7A1.078,1.078,0,0,0,225.509,143.617Z" transform="translate(-222.695 -143.617)" fill="#42e9d6"/>
      </g>
    </g>
    <g id="Grupo_52" data-name="Grupo 52" transform="translate(37.702 20.648)">
      <g id="Grupo_51" data-name="Grupo 51">
        <path id="Caminho_511" data-name="Caminho 511" d="M265.048,143.617h-1.736a1.078,1.078,0,0,0-1.078,1.078v1.736a1.078,1.078,0,0,0,1.078,1.078h1.736a1.078,1.078,0,0,0,1.078-1.078V144.7A1.078,1.078,0,0,0,265.048,143.617Z" transform="translate(-262.234 -143.617)" fill="#42e9d6"/>
      </g>
    </g>
    <g id="Grupo_54" data-name="Grupo 54" transform="translate(43.387 20.648)">
      <g id="Grupo_53" data-name="Grupo 53">
        <path id="Caminho_512" data-name="Caminho 512" d="M304.587,143.617h-1.736a1.078,1.078,0,0,0-1.078,1.078v1.736a1.078,1.078,0,0,0,1.078,1.078h1.736a1.078,1.078,0,0,0,1.078-1.078V144.7A1.078,1.078,0,0,0,304.587,143.617Z" transform="translate(-301.773 -143.617)" fill="#42e9d6"/>
      </g>
    </g>
    <g id="Grupo_56" data-name="Grupo 56" transform="translate(49.071 20.648)">
      <g id="Grupo_55" data-name="Grupo 55">
        <path id="Caminho_513" data-name="Caminho 513" d="M344.125,143.617h-1.736a1.078,1.078,0,0,0-1.078,1.078v1.736a1.078,1.078,0,0,0,1.078,1.078h1.736a1.078,1.078,0,0,0,1.078-1.078V144.7A1.078,1.078,0,0,0,344.125,143.617Z" transform="translate(-341.311 -143.617)" fill="#42e9d6"/>
      </g>
    </g>
    <g id="Grupo_58" data-name="Grupo 58" transform="translate(20.649 49.07)">
      <g id="Grupo_57" data-name="Grupo 57">
        <path id="Caminho_514" data-name="Caminho 514" d="M146.431,341.311H144.7a1.078,1.078,0,0,0-1.078,1.078v1.736A1.078,1.078,0,0,0,144.7,345.2h1.736a1.078,1.078,0,0,0,1.078-1.078v-1.736A1.078,1.078,0,0,0,146.431,341.311Z" transform="translate(-143.617 -341.311)" fill="#42e9d6"/>
      </g>
    </g>
    <g id="Grupo_60" data-name="Grupo 60" transform="translate(26.333 49.07)">
      <g id="Grupo_59" data-name="Grupo 59">
        <path id="Caminho_515" data-name="Caminho 515" d="M185.97,341.311h-1.736a1.078,1.078,0,0,0-1.078,1.078v1.736a1.078,1.078,0,0,0,1.078,1.078h1.736a1.078,1.078,0,0,0,1.078-1.078v-1.736A1.078,1.078,0,0,0,185.97,341.311Z" transform="translate(-183.156 -341.311)" fill="#42e9d6"/>
      </g>
    </g>
    <g id="Grupo_62" data-name="Grupo 62" transform="translate(32.018 49.07)">
      <g id="Grupo_61" data-name="Grupo 61">
        <path id="Caminho_516" data-name="Caminho 516" d="M225.509,341.311h-1.736a1.078,1.078,0,0,0-1.078,1.078v1.736a1.078,1.078,0,0,0,1.078,1.078h1.736a1.078,1.078,0,0,0,1.078-1.078v-1.736A1.078,1.078,0,0,0,225.509,341.311Z" transform="translate(-222.695 -341.311)" fill="#42e9d6"/>
      </g>
    </g>
    <g id="Grupo_64" data-name="Grupo 64" transform="translate(37.702 49.07)">
      <g id="Grupo_63" data-name="Grupo 63">
        <path id="Caminho_517" data-name="Caminho 517" d="M265.048,341.311h-1.736a1.078,1.078,0,0,0-1.078,1.078v1.736a1.078,1.078,0,0,0,1.078,1.078h1.736a1.078,1.078,0,0,0,1.078-1.078v-1.736A1.078,1.078,0,0,0,265.048,341.311Z" transform="translate(-262.234 -341.311)" fill="#42e9d6"/>
      </g>
    </g>
    <g id="Grupo_66" data-name="Grupo 66" transform="translate(43.387 49.07)">
      <g id="Grupo_65" data-name="Grupo 65">
        <path id="Caminho_518" data-name="Caminho 518" d="M304.587,341.311h-1.736a1.078,1.078,0,0,0-1.078,1.078v1.736a1.078,1.078,0,0,0,1.078,1.078h1.736a1.078,1.078,0,0,0,1.078-1.078v-1.736A1.078,1.078,0,0,0,304.587,341.311Z" transform="translate(-301.773 -341.311)" fill="#42e9d6"/>
      </g>
    </g>
    <g id="Grupo_68" data-name="Grupo 68" transform="translate(49.071 49.07)">
      <g id="Grupo_67" data-name="Grupo 67">
        <path id="Caminho_519" data-name="Caminho 519" d="M344.125,341.311h-1.736a1.078,1.078,0,0,0-1.078,1.078v1.736a1.078,1.078,0,0,0,1.078,1.078h1.736a1.078,1.078,0,0,0,1.078-1.078v-1.736A1.078,1.078,0,0,0,344.125,341.311Z" transform="translate(-341.311 -341.311)" fill="#42e9d6"/>
      </g>
    </g>
    <g id="Grupo_70" data-name="Grupo 70" transform="translate(20.649 26.332)">
      <g id="Grupo_69" data-name="Grupo 69">
        <path id="Caminho_520" data-name="Caminho 520" d="M146.431,183.156H144.7a1.078,1.078,0,0,0-1.078,1.078v1.736a1.078,1.078,0,0,0,1.078,1.078h1.736a1.078,1.078,0,0,0,1.078-1.078v-1.736A1.078,1.078,0,0,0,146.431,183.156Z" transform="translate(-143.617 -183.156)" fill="#42e9d6"/>
      </g>
    </g>
    <g id="Grupo_72" data-name="Grupo 72" transform="translate(20.649 32.017)">
      <g id="Grupo_71" data-name="Grupo 71">
        <path id="Caminho_521" data-name="Caminho 521" d="M146.431,222.7H144.7a1.078,1.078,0,0,0-1.078,1.078v1.736a1.078,1.078,0,0,0,1.078,1.078h1.736a1.078,1.078,0,0,0,1.078-1.078v-1.736A1.078,1.078,0,0,0,146.431,222.7Z" transform="translate(-143.617 -222.695)" fill="#42e9d6"/>
      </g>
    </g>
    <g id="Grupo_74" data-name="Grupo 74" transform="translate(20.649 37.701)">
      <g id="Grupo_73" data-name="Grupo 73">
        <path id="Caminho_522" data-name="Caminho 522" d="M146.431,262.234H144.7a1.078,1.078,0,0,0-1.078,1.078v1.736a1.078,1.078,0,0,0,1.078,1.078h1.736a1.078,1.078,0,0,0,1.078-1.078v-1.736A1.078,1.078,0,0,0,146.431,262.234Z" transform="translate(-143.617 -262.234)" fill="#42e9d6"/>
      </g>
    </g>
    <g id="Grupo_76" data-name="Grupo 76" transform="translate(20.649 43.386)">
      <g id="Grupo_75" data-name="Grupo 75">
        <path id="Caminho_523" data-name="Caminho 523" d="M146.431,301.772H144.7a1.078,1.078,0,0,0-1.078,1.078v1.736a1.078,1.078,0,0,0,1.078,1.078h1.736a1.078,1.078,0,0,0,1.078-1.078V302.85A1.078,1.078,0,0,0,146.431,301.772Z" transform="translate(-143.617 -301.772)" fill="#42e9d6"/>
      </g>
    </g>
    <g id="Grupo_78" data-name="Grupo 78" transform="translate(49.071 26.332)">
      <g id="Grupo_77" data-name="Grupo 77">
        <path id="Caminho_524" data-name="Caminho 524" d="M344.125,183.156h-1.736a1.078,1.078,0,0,0-1.078,1.078v1.736a1.078,1.078,0,0,0,1.078,1.078h1.736a1.078,1.078,0,0,0,1.078-1.078v-1.736A1.078,1.078,0,0,0,344.125,183.156Z" transform="translate(-341.311 -183.156)" fill="#42e9d6"/>
      </g>
    </g>
    <g id="Grupo_80" data-name="Grupo 80" transform="translate(49.071 32.017)">
      <g id="Grupo_79" data-name="Grupo 79">
        <path id="Caminho_525" data-name="Caminho 525" d="M344.125,222.7h-1.736a1.078,1.078,0,0,0-1.078,1.078v1.736a1.078,1.078,0,0,0,1.078,1.078h1.736a1.078,1.078,0,0,0,1.078-1.078v-1.736A1.078,1.078,0,0,0,344.125,222.7Z" transform="translate(-341.311 -222.695)" fill="#42e9d6"/>
      </g>
    </g>
    <g id="Grupo_82" data-name="Grupo 82" transform="translate(49.071 37.701)">
      <g id="Grupo_81" data-name="Grupo 81">
        <path id="Caminho_526" data-name="Caminho 526" d="M344.125,262.234h-1.736a1.078,1.078,0,0,0-1.078,1.078v1.736a1.078,1.078,0,0,0,1.078,1.078h1.736a1.078,1.078,0,0,0,1.078-1.078v-1.736A1.078,1.078,0,0,0,344.125,262.234Z" transform="translate(-341.311 -262.234)" fill="#42e9d6"/>
      </g>
    </g>
    <g id="Grupo_84" data-name="Grupo 84" transform="translate(49.071 43.386)">
      <g id="Grupo_83" data-name="Grupo 83">
        <path id="Caminho_527" data-name="Caminho 527" d="M344.125,301.772h-1.736a1.078,1.078,0,0,0-1.078,1.078v1.736a1.078,1.078,0,0,0,1.078,1.078h1.736a1.078,1.078,0,0,0,1.078-1.078V302.85A1.078,1.078,0,0,0,344.125,301.772Z" transform="translate(-341.311 -301.772)" fill="#42e9d6"/>
      </g>
    </g>
  </g>
</svg>
