<svg xmlns="http://www.w3.org/2000/svg" viewBox="0 0 691.035 758.663"><g fill="none" stroke="#00ffce" stroke-miterlimit="10" stroke-width=".75"><path data-name="Caminho 104" d="M432.168 17.299a3.6 3.6 0 012.914.23c3.9 1.745 5.855 6.054 7.477 10.007l17.176 41.858a65.581 65.581 0 013.713 10.8c.606 2.772.66 6.122-1.522 7.936"/><path data-name="Caminho 105" d="M430.618 18.968c.534 3.182 1.28 6.322 2.024 9.46 2.3 9.7 4.619 19.46 8.445 28.671 1.271 3.06 2.7 6.049 4.136 9.036l3.66 7.635c2.642 5.511 5.431 11.211 10.183 15.054"/><path data-name="Caminho 106" d="M457.254 64.443l-4.267 1.253a20.771 20.771 0 00-3.784 1.381.9.9 0 00-.346.264.922.922 0 00-.12.4q-.223 1.639-.448 3.277"/><path data-name="Caminho 107" d="M455.611 60.853a26.756 26.756 0 00-7.278 2.893 3.061 3.061 0 01-1.01.44 2.554 2.554 0 01-1.328-.239 10.478 10.478 0 01-2.234-1.223"/><path data-name="Caminho 108" d="M447.397 40.313l-6.88 2.49a1.649 1.649 0 00-1.361 1.554l-.779 3.653"/><path data-name="Caminho 109" d="M445.896 36.702q-3.306 1.035-6.51 2.367a5.331 5.331 0 01-1.264.409 5.221 5.221 0 01-3.3-1.073"/><path data-name="Caminho 110" d="M450.156 75.849a24.6 24.6 0 016.333 2.372 10.5 10.5 0 014.534 4.884 16.127 16.127 0 01.907 4.19"/><path data-name="Caminho 111" d="M433.014 17.169c2.688 2.323 3.856 6.027 3.884 9.579a37.692 37.692 0 01-1.911 10.446"/><path data-name="Caminho 112" d="M453.947 56.581a7.893 7.893 0 00-3.044-.22 52.377 52.377 0 00-9.473 1.517"/><path data-name="Caminho 113" d="M449.945 46.559l-2.405 1.39c-.857.5-1.716.991-2.523 1.564-.873.617-1.685 1.322-2.588 1.893a5.794 5.794 0 01-3 1.014"/><path data-name="Caminho 114" d="M446.863 57.479a3.06 3.06 0 01.057 3.471 3.984 3.984 0 01-3.144 1.689"/><path data-name="Caminho 115" d="M423.463 2.636c3.546-1.471 7.7-.889 11.139.821a29.707 29.707 0 018.79 7.33c13.1 14.936 19.595 34.385 25.773 53.271l3.2 9.795c3.01 9.2 6.015 19.265 2.636 28.336-2.593 6.959-8.785 12.75-8.907 20.175"/><path data-name="Caminho 116" d="M466.649 125.782l3.75 13.954c.31 1.153.718 2.434 1.778 2.985 1.375.716 3.011-.185 4.262-1.1a63.532 63.532 0 0012.362-11.928 16.625 16.625 0 002.911-4.881 17.074 17.074 0 00.28-7.644 78.69 78.69 0 00-6.307-22.113"/><path data-name="Caminho 117" d="M424.367 2.107a25.14 25.14 0 0118.248.127 40.114 40.114 0 0115.1 10.707 57.388 57.388 0 019.6 14.229c1.5 3.16 2.709 6.449 3.914 9.733l4.725 12.874c1.8 4.91 3.6 9.823 5.158 14.817 3.229 10.38 3.549 19.636 4.563 30.459"/><path data-name="Caminho 118" d="M452.99 8.417a33.146 33.146 0 017.169 2.1"/><path data-name="Caminho 119" d="M460.158 10.513a110.461 110.461 0 0112.511 21.363c1.4 3.227 2.615 6.531 3.827 9.833 3.4 9.259 6.8 18.53 9.425 28.038"/><path data-name="Caminho 120" d="M486.665 73.023l.963 3.785"/><path data-name="Caminho 121" d="M488.374 80.791c3.385 10.9 5.93 22.6 3.044 33.635"/><path data-name="Caminho 122" d="M492.396 97.454a49.2 49.2 0 002.658 7.587l2.071-.771"/><path data-name="Caminho 123" d="M460.158 10.512a4.566 4.566 0 01-.18-1.832 1.728 1.728 0 012.983-1.458"/><path data-name="Caminho 124" d="M497.692 104.272a161.944 161.944 0 00-6.48-22.41"/><path data-name="Caminho 125" d="M462.961 7.222a199.989 199.989 0 0122.721 48.174 146.055 146.055 0 015.53 26.466"/><path data-name="Caminho 126" d="M420.531 4.184c-20.478 16.268-48.509 21.59-67.217 39.865"/><path data-name="Caminho 127" d="M352.031 46.689a4.758 4.758 0 00-.21 1.887"/><path data-name="Caminho 128" d="M352.227 52.222a385.458 385.458 0 0012.928 41.793c3.711 9.955 7.874 19.831 13.83 28.629a32.474 32.474 0 008 8.726c2.505 1.742 5.371 2.9 7.95 4.527s4.967 3.919 5.673 6.888"/><path data-name="Caminho 129" d="M400.515 142.501a50.317 50.317 0 0114.756-1.424 3.49 3.49 0 012.6.9 2.39 2.39 0 01-.012 2.742 6.035 6.035 0 01-2.236 1.853 29.346 29.346 0 01-12.25 3.683"/><path data-name="Caminho 130" d="M409.774 141.702a12.866 12.866 0 01-8.169 6.945c-1.331.365-2.72.513-4.032.945a5.223 5.223 0 00-3.193 2.46 5.8 5.8 0 00.007 4.152 19.249 19.249 0 007.749 10.006"/><path data-name="Caminho 131" d="M403.357 150.687a8.847 8.847 0 01-7.958 7.33"/><path data-name="Caminho 132" d="M403.181 149.883l-1.146-.547"/><path data-name="Caminho 133" d="M472.175 142.72c-4.884.8-9.048 2.318-13.932 3.122-2.892.476-5.786.954-8.642 1.606-2.377.542-4.725 1.206-7.081 1.833-15.227 4.054-30.808 6.6-46.36 9.138"/><path data-name="Caminho 134" d="M370.087 109.464c-7.876 6.463-17.5 10.333-26.4 15.289-9.142 5.09-17.566 11.359-25.95 17.619-20.8 15.532-41.539 31.148-61.8 47.378q-26.006 20.835-50.918 42.989"/><path data-name="Caminho 135" d="M354.583 66.471c-8.714-.55-16.841 4.044-24.264 8.641-57.438 35.575-108.489 80.389-159.161 125.093"/><path data-name="Caminho 136" d="M315.729 85.229a53.345 53.345 0 0110.8 14.545"/><path data-name="Caminho 137" d="M327.385 102.753l1.951 3"/><path data-name="Caminho 138" d="M333.824 114.502l5.988 10.649"/><path data-name="Caminho 139" d="M330.797 109.574l.757 1.895"/><path data-name="Caminho 140" d="M276.993 112.225a26.76 26.76 0 014.156 4.934"/><path data-name="Caminho 141" d="M283.776 120.97l1.882 2.284"/><path data-name="Caminho 142" d="M288.893 127.252l2.4 2.867"/><path data-name="Caminho 143" d="M293.392 133.372l1.811 2.709"/><path data-name="Caminho 144" d="M298.285 140.574q.714.8 1.43 1.594"/><path data-name="Caminho 145" d="M305.479 150.822l-3.957-5.564"/><path data-name="Caminho 146" d="M212.252 165.985l5.265 6.1"/><path data-name="Caminho 147" d="M219.399 175.501a7.113 7.113 0 013.017 3.794"/><path data-name="Caminho 148" d="M225.054 182.342l1.569 2.237"/><path data-name="Caminho 149" d="M229.737 188.285l2.529 2.766"/><path data-name="Caminho 150" d="M235.358 194.784l6.035 6.466"/><path data-name="Caminho 151" d="M205.024 232.74c-9.735-8.89-17-16.142-26.732-25.033a63.334 63.334 0 01-7.131-7.5"/><path data-name="Caminho 152" d="M213.758 224.34q-2.131-2.409-4.486-4.609"/><path data-name="Caminho 153" d="M182.812 189.658q2.271 3.093 4.777 6"/><path data-name="Caminho 154" d="M189.462 197.479a13.859 13.859 0 011.93 2.189"/><path data-name="Caminho 155" d="M194.288 202.319l1.954 2.163"/><path data-name="Caminho 156" d="M198.817 207.311l3.254 3.706"/><path data-name="Caminho 157" d="M204.513 213.691l2.513 2.6"/><path data-name="Caminho 158" d="M209.886 229.347a46.118 46.118 0 013.179 5.267c.891 1.725 1.686 3.733 1.035 5.563-.53 1.491-1.894 2.495-3.136 3.476a43.505 43.505 0 00-5.457 5.134c-1.289 1.44-2.656 3.071-4.566 3.371"/><path data-name="Caminho 159" d="M212.619 226.783l3.559 6.181a3.307 3.307 0 01-.224 4.3l-2.494 4.174"/><path data-name="Caminho 160" d="M200.88 252.452c-11.793-11.911-24.912-22.416-38-32.89l-7.674-6.142c-6.619-5.3-13.261-10.614-20.5-15.024"/><path data-name="Caminho 161" d="M174.805 196.792a26.957 26.957 0 00-6.131-3.305 9.947 9.947 0 00-6.839-.067c-1.927.776-3.479 2.332-5.448 3a8.844 8.844 0 01-6.028-.4 26.277 26.277 0 01-5.291-3.139l-13.313-9.377"/><path data-name="Caminho 162" d="M131.385 183.502c.507 1.906 2.065 3.333 3.632 4.531a15.883 15.883 0 014.286 4.023c1.021 1.688 1.116 4.141-.382 5.424-1.189 1.02-2.928.989-4.49.864"/><path data-name="Caminho 163" d="M177.564 194.646l-2.753-1.635c-2.478-1.471-5.168-3-8.041-2.755a7.108 7.108 0 00-5.543 3.6"/><path data-name="Caminho 164" d="M162.318 192.887a8.956 8.956 0 01-7.245 1.259c-2.424-.639-4.444-2.262-6.471-3.736a137.831 137.831 0 00-12.919-8.016 5.2 5.2 0 00-2.369-.875 1.786 1.786 0 00-1.877 1.371"/><path data-name="Caminho 165" d="M350.258 46.389l-7.43 3.03c-3.843 1.569-7.744 3.17-11 5.745s-5.84 6.3-6.074 10.447c-.219 3.868 1.592 7.683 1.109 11.527"/><path data-name="Caminho 166" d="M398.313 139.396c-4.6 1.529-9.3 3.075-14.15 3.021a40.1 40.1 0 01-7.776-1.064q-5.906-1.24-11.745-2.779a36.987 36.987 0 01-6.072-2.013c-5.7-2.623-9.662-7.613-13.557-12.534"/><path data-name="Caminho 167" d="M388.075 142.784a14.368 14.368 0 012.9 5.016 4.9 4.9 0 01-1.569 5.249c-1.728 1.178-4.047.646-6.071.124a118.227 118.227 0 00-15.845-2.951 52.115 52.115 0 01-6.272-.932 31.327 31.327 0 01-8.254-3.533 57.962 57.962 0 01-18.093-15.639"/><path data-name="Caminho 168" d="M340.803 127.722c3.262 5.079 6.7 10.331 11.852 13.473a37.324 37.324 0 006.935 3.067 49.179 49.179 0 009.748 2.682c5.08.7 10.358-.034 15.286 1.384"/><path data-name="Caminho 169" d="M353.687 43.738a30.318 30.318 0 00-19.454-2.653 37.9 37.9 0 00-17.689 8.824c-2.385 2.079-4.65 4.643-5.052 7.78a15.409 15.409 0 00.3 4.485c1.3 7.82 2.631 14.436 3.936 22.256"/><path data-name="Caminho 170" d="M319.498 81.136a54.431 54.431 0 01-2.6-15.32"/><path data-name="Caminho 171" d="M317.115 62.022a13.551 13.551 0 011.241-4.13"/><path data-name="Caminho 172" d="M319.995 53.502l-.19.568"/><path data-name="Caminho 173" d="M376.193 151.253a79.353 79.353 0 01-24.785-2.154 27.9 27.9 0 01-8.058-3.092 31.419 31.419 0 01-6.68-6.131q-2.987-3.374-5.836-6.865"/><path data-name="Caminho 174" d="M313.741 52.365v.189"/><path data-name="Caminho 175" d="M315.322 50.559c-3.686 2.63-6.879 6.271-7.91 10.681a26.606 26.606 0 00-.073 8.86q.934 8.784 2.131 17.54"/><path data-name="Caminho 176" d="M458.061 118.874l-21.674 5.006c-3.759.868-7.524 1.739-11.177 2.978"/><path data-name="Caminho 177" d="M416.018 129.183l-5.293 1.188"/><path data-name="Caminho 178" d="M404.671 131.931h-1.895"/><path data-name="Caminho 179" d="M389.812 144.307a15.442 15.442 0 0110.129-2.388"/><path data-name="Caminho 180" d="M402.217 142.54a1.7 1.7 0 011.055 2.252 2.76 2.76 0 01-2.214 1.554 8.136 8.136 0 01-2.809-.245l-4.739-.978"/><path data-name="Caminho 181" d="M402.411 166.158a8.906 8.906 0 01-.648 5.944 18.2 18.2 0 01-3.536 4.933"/><path data-name="Caminho 182" d="M397.873 177.183c2.285 1.81 4.623 3.683 6.074 6.211s1.825 5.9.139 8.274c-.8 1.129-1.986 1.943-2.767 3.084-1.747 2.552-1.071 6.013-.017 8.921 1.831 5.05 4.6 9.779 5.8 15.014s.463 11.422-3.67 14.855"/><path data-name="Caminho 183" d="M397.649 177.25a15 15 0 00-3.9-.8 7.386 7.386 0 00-2.485.182 12.847 12.847 0 00-2.544 1.2 20.916 20.916 0 01-10.184 2.476"/><path data-name="Caminho 185" d="M378.332 179.481a.612.612 0 01-.361.59"/><path data-name="Caminho 186" d="M238.721 140.783a50.644 50.644 0 00-9.77-.892 16.972 16.972 0 00-9.261 2.837 16.193 16.193 0 00-5.953 9.491 34.647 34.647 0 00-.427 11.385"/><path data-name="Caminho 187" d="M234.127 145.842a8.674 8.674 0 00-4.657-.38 8.035 8.035 0 00-3.225 2.226c-2.584 2.56-5.027 5.629-5.324 9.254"/><path data-name="Caminho 188" d="M267.9 181.675a24.429 24.429 0 013.136 6.822 8.261 8.261 0 01-1.358 7.143 8.372 8.372 0 01-2.579 1.948 7.109 7.109 0 01-5.468.748 13.432 13.432 0 01-3.055-1.869 16.7 16.7 0 00-6.931-2.742"/><path data-name="Caminho 189" d="M277.681 197.305c2.937 9.2 11.012 15.679 18.891 21.26a52.052 52.052 0 0010.744 6.3 56.2 56.2 0 0012.164 2.815c20.411 3.149 40.823 6.3 61.27 9.209"/><path data-name="Caminho 190" d="M400.152 235.956c-6.046 2.279-12.138 4.572-18.509 5.653-9.94 1.685-20.346.382-30 3.277a15.753 15.753 0 00-5.227 2.47 19.24 19.24 0 00-4.546 5.927 190.9 190.9 0 00-9.706 19.6"/><path data-name="Caminho 191" d="M416.595 7.006q-42.831 6.892-85.94 11.877c-26.63 3.079-53.406 5.624-79.527 11.652-9.938 2.294-19.753 5.085-29.562 7.875a97.321 97.321 0 00-25.171 10.927"/><path data-name="Caminho 192" d="M409.901 11.421c-16.087 1.028-28.826 5.964-44.114 11.076l-49.99 16.713c-10.195 3.408-20.4 6.82-30.825 9.443-7.043 1.772-14.173 3.182-21.23 4.9a252.348 252.348 0 00-45.313 15.7"/><path data-name="Caminho 193" d="M391.886 20.436c-7.388.141-11.367-.064-18.749-.377"/><path data-name="Caminho 194" d="M212.884 73.021q-15.189 11.827-29.219 25.053a114.405 114.405 0 00-10.142 10.54 98.594 98.594 0 00-8.465 12.428c-9.831 16.632-17.258 34.955-30.111 49.385-4.465 5.013-9.58 9.55-13 15.327"/><path data-name="Caminho 195" d="M196.395 49.341C190 52.599 182.066 59.87 177.058 65.012l-11.981 12.3c-3.644 3.742-7.292 7.487-10.647 11.488-13.27 15.82-21.621 35.185-27.987 54.828a121.453 121.453 0 00-3.757 13.729c-1.645 8.273-.526 19.964-.739 28.4"/><path data-name="Caminho 196" d="M197.466 49.293l5.524 5.653"/><path data-name="Caminho 197" d="M204.547 56.987l1.887 1.9"/><path data-name="Caminho 198" d="M209.595 62.729a9.955 9.955 0 011.854 2.135"/><path data-name="Caminho 199" d="M213.497 67.903a1.575 1.575 0 00.8 1.113"/><path data-name="Caminho 200" d="M152.705 91.981a24.12 24.12 0 013.435 2.424"/><path data-name="Caminho 201" d="M158.796 96.866l1.736 1.866"/><path data-name="Caminho 202" d="M162.954 101.413a4.707 4.707 0 011.886 1.722"/><path data-name="Caminho 203" d="M171.116 111.08a26.5 26.5 0 00-4.184-4.728"/><path data-name="Caminho 204" d="M333.823 40.619a14.332 14.332 0 00-5.251-5.4"/><path data-name="Caminho 205" d="M316.253 38.972l-19.5 19.347a151.145 151.145 0 00-12.515 13.468c-3.788 4.8-6.979 10.051-10.62 14.971-5.9 7.97-12.933 15.022-19.978 22q-9.071 8.985-18.229 17.88a172.543 172.543 0 01-15.14 13.556c-5.681 4.345-11.864 7.992-17.617 12.241-11.57 8.543-21.222 19.38-30.608 30.279"/><path data-name="Caminho 206" d="M300.016 54.545c-5.63 11.061-6.655 23.987-12.071 35.153a49.2 49.2 0 01-22.8 22.69"/><path data-name="Caminho 207" d="M258.4 115.604a120.039 120.039 0 00-15.825 12.982"/><path data-name="Caminho 208" d="M296.335 64.876a97.182 97.182 0 01-26.174 38.25"/><path data-name="Caminho 209" d="M291.513 80.706q-2.655 10.119-5.307 20.238c-.7 2.669-1.725 5.714-4.315 6.667"/><path data-name="Caminho 210" d="M297.131 157.933l-2.733 6.686c-1.434 3.511-2.9 7.076-5.277 10.03a20.158 20.158 0 01-21.528 6.316"/><path data-name="Caminho 211" d="M289.969 163.795a23.823 23.823 0 01-6.343 10.292"/><path data-name="Caminho 212" d="M224.019 215.823c5.774 9.565 11.77 20.1 10.333 31.182-.734 5.666-3.4 10.92-6.615 15.639-1.923 2.819-4.168 5.582-7.24 7.068s-6.142 2.21-8.486-.269"/><path data-name="Caminho 213" d="M330.603 276.429q-.887 1.688-1.771 3.375"/><path data-name="Caminho 214" d="M325.365 287.01q-7.1 15.754-14.21 31.507c-.8 1.771-1.616 3.676-1.287 5.59"/><path data-name="Caminho 215" d="M207.6 275.942a52.562 52.562 0 01-8.739 18.234"/><path data-name="Caminho 216" d="M212.93 243.377a4.242 4.242 0 01.7 2.354c.549 6.023 1.092 12.145-.082 18.079s-4.326 11.759-9.584 14.749"/><path data-name="Caminho 217" d="M202.967 250.887c2.143 8.932-.807 18.235-.83 27.422 0 2.31.446 5.045 2.527 6.046"/><path data-name="Caminho 218" d="M220.395 219.218a32.118 32.118 0 01.733 43.236"/><path data-name="Caminho 219" d="M213.732 262.983a20.1 20.1 0 007.67-12.554c.832-4.874-.174-9.856-1.251-14.682"/><path data-name="Caminho 220" d="M209.618 245.23a44.965 44.965 0 01-4.243 23.748 44.547 44.547 0 00-3.329 7.47"/><path data-name="Caminho 221" d="M206.49 248.038c.909 6.48-1.4 12.947-3.94 18.978"/><path data-name="Caminho 222" d="M212.664 154.682a11.742 11.742 0 01-3.146 5.324c-8.606 9.671-19.839 17-27.047 27.758"/><path data-name="Caminho 223" d="M173.11 192.13q5.717-8.818 11.844-17.362"/><path data-name="Caminho 224" d="M288.773 317.272l-13.38-69.154"/><path data-name="Caminho 225" d="M338.534 244.47a6.771 6.771 0 00-3.146-5.04 17.273 17.273 0 00-5.706-2.228c-12.56-3.084-26.156-3.37-37.3-9.926"/><path data-name="Caminho 226" d="M386.007 157.536c-10.453-1.93-21.115.807-31.659 2.143s-22.3.9-30.329-6.058a27.775 27.775 0 00-4.474-3.67 8.837 8.837 0 00-10.39 1.624"/><path data-name="Caminho 227" d="M310.045 20.286c-4.875-2.809-10.7-3.61-16.318-3.251s-11.1 1.81-16.537 3.253l-21.585 5.728"/><path data-name="Caminho 228" d="M278.679 18.524a50.939 50.939 0 00-13.3-2.731c-21.781-1.5-42.38 11.236-56.953 27.492"/><path data-name="Caminho 229" d="M230.386 24.724c-3.267-.515-6.532.785-9.491 2.263a71.764 71.764 0 00-26.187 22.366 14.969 14.969 0 01-2.405 2.88"/><path data-name="Caminho 230" d="M211.416 30.814c-13.715-.223-28.141-.276-40.165 6.326-6.12 3.36-11.251 8.278-15.805 13.569a112.265 112.265 0 00-26.857 68.348"/><path data-name="Caminho 231" d="M145.426 65.077c-10.1 13.658-21.28 26.8-28.159 42.327s-8.861 34.379-.349 49.078c2.219 3.831 4.385 3.075 5.148 7.435"/><path data-name="Caminho 232" d="M284.468 49.126c-11.265 9.973-20.517 21.967-30.311 33.388-20.285 23.651-43.08 45.027-66.49 65.592-7.845 6.89-15.863 13.806-21.693 22.467"/><path data-name="Caminho 233" d="M149.637 190.632a106.285 106.285 0 019.887-14.379"/><path data-name="Caminho 234" d="M228.763 65.112q-29.879 30.111-56.968 62.822c-12.573 15.189-25.196 32.089-26.436 51.764"/><path data-name="Caminho 235" d="M251.881 57.031a78.027 78.027 0 01-8.8 11.453l-19.232 22.067"/><path data-name="Caminho 236" d="M217.481 97.054l-9 11.443"/><path data-name="Caminho 237" d="M204.976 113.717l-3.867 3.708"/><path data-name="Caminho 238" d="M135.121 198.913a32.72 32.72 0 01-9.864-6.307 13.992 13.992 0 01-2.077-2.317 8.946 8.946 0 01-1.547-4.935"/><path data-name="Caminho 239" d="M143.354 204.823a1.743 1.743 0 01-1.652 1.706 4.8 4.8 0 01-2.517-.676 56.512 56.512 0 01-14.942-10.648"/><path data-name="Caminho 240" d="M121.287 184.922a2.113 2.113 0 00-2.126 1.183 4.727 4.727 0 00-.7 3.28 3.775 3.775 0 001.92 2.7"/><path data-name="Caminho 241" d="M140.179 206.845a3.081 3.081 0 01-2.71 1.7 7.193 7.193 0 01-3.251-.774c-5.894-2.594-10.4-7.481-15.052-11.931a8.872 8.872 0 01-2.63-3.488c-.442-1.4.094-3.237 1.5-3.682"/><path data-name="Caminho 242" d="M194.358 30.692c-5.171 2.78-9.066 7.406-12.668 12.042a259.8 259.8 0 00-19.263 28.495"/><path data-name="Caminho 243" d="M155.41 87.993a43.205 43.205 0 013-7.586"/><path data-name="Caminho 244" d="M169.194 37.638c-1.17 3.507-3.519 6.471-5.689 9.464a119.465 119.465 0 00-21.457 53.047"/><path data-name="Caminho 245" d="M263.984 53.047a336.347 336.347 0 01-35.444 47.857"/><path data-name="Caminho 246" d="M220.435 109.475l-44.327 43.957"/><path data-name="Caminho 247" d="M146.263 189.316c1.687-3.018 3.5-5.962 5.317-8.9q12.31-19.959 24.621-39.915"/><path data-name="Caminho 248" d="M126.29 193.691a27.975 27.975 0 012.64-12.086"/><path data-name="Caminho 249" d="M141.292 170.929a108.306 108.306 0 00-4.57 10.987"/><path data-name="Caminho 250" d="M134.21 188.415l-3.821 7.561"/><path data-name="Caminho 251" d="M119.206 159.619a107.249 107.249 0 011.511-45.065"/><path data-name="Caminho 252" d="M207.513 98.416q-22.814 26.427-46.256 52.3"/><path data-name="Caminho 253" d="M187.037 42.425q-4.588 8.124-8.909 16.4"/><path data-name="Caminho 254" d="M264.537 323.035a3.356 3.356 0 00-.957-4.4 4.563 4.563 0 00-4.722-.136 7.265 7.265 0 00-3.131 3.745 5.561 5.561 0 00-.4 3.474 2.923 2.923 0 002.464 2.24"/><path data-name="Caminho 255" d="M258.375 319.28c6.578 1.674 11.843 6.781 15.307 12.618s5.392 12.43 7.468 18.892c13.97 43.49 36.008 84.163 48.46 128.118 5.409 19.1 8.961 38.672 12.505 58.207"/><path data-name="Caminho 256" d="M256.236 326.441c10.949 3.272 16.43 15.287 19.939 26.162 6.469 20.048 10.874 40.789 18.8 60.309 7.354 18.119 17.643 34.945 24.82 53.135 9.765 24.754 13.532 51.4 17.074 77.772"/><path data-name="Caminho 257" d="M353.254 339.912c-5.633 0-11.064-1.906-16.542-3.224-19.439-4.677-39.8-1.955-59.6.789"/><path data-name="Caminho 258" d="M270.185 338.148q-13.386 2.338-26.846 4.219a56.974 56.974 0 01-10.015.783"/><path data-name="Caminho 259" d="M330.232 335.645l17.6-.954c2.526-.136 5.307-.194 7.272 1.4a10.408 10.408 0 012.753 4.584 6.168 6.168 0 01.572 3.981c-.53 1.67-2.321 2.538-3.936 3.219-5.171 2.179-10.5 4.37-16.111 4.5-2.545.059-5.081-.311-7.626-.339-12.87-.136-24.877 8.439-37.691 7.23"/><path data-name="Caminho 260" d="M278.233 358.422a85.306 85.306 0 00-14.367-2.187c-5.824-.384-11.821-.193-17.3-2.208-6.075-2.234-10.861-6.936-15.444-11.506"/><path data-name="Caminho 261" d="M341.018 352.537l.48 2.293"/><path data-name="Caminho 262" d="M341.378 355.001c3.783 1.9 7.616 3.826 10.771 6.647s5.607 6.688 5.8 10.915a22.887 22.887 0 01-1.083 6.952 16.5 16.5 0 01-2.493 5.921c-2.922 3.794-8.608 4.439-13.137 2.881s-8.215-4.838-11.9-7.9c-12.3-10.209-27.143-19.084-43.109-18.3"/><path data-name="Caminho 263" d="M279.102 362.913a8.933 8.933 0 00-4.029.048"/><path data-name="Caminho 264" d="M341.646 354.244a49.29 49.29 0 01-11.489 8.041 27.208 27.208 0 01-13.615 2.868"/><path data-name="Caminho 265" d="M338.394 352.613l-8.376 3.288c-6.574 2.581-13.531 5.209-20.513 4.151"/><path data-name="Caminho 266" d="M284.137 336.289a47.309 47.309 0 01-9.55-3.206"/><path data-name="Caminho 267" d="M263.196 329.987a299.847 299.847 0 00-67.925-19.608c-14.873-2.442-30.213-3.742-44.939-.532"/><path data-name="Caminho 268" d="M233.607 342.931c-14.158-2.781-27.916-7.475-42.177-9.674s-29.558-1.693-42.144 5.363c-6.842 3.835-12.527 9.4-18.124 14.889"/><path data-name="Caminho 269" d="M335.807 335.863l-27.6-11.317c-7.688-3.153-15.382-6.308-23.264-8.941-37.799-12.627-78.464-12.838-118.316-12.92"/><path data-name="Caminho 270" d="M233.832 305.144c-13.27-1.489-25.453-7.762-38.162-11.86s-27.441-5.787-38.747 1.318c-3 1.888-5.631 4.324-8.644 6.195-5.636 3.5-12.3 4.851-18.545 7.087s-12.567 5.822-15.292 11.873"/><path data-name="Caminho 271" d="M112.484 321.846c-7.5 4.863-15.554 8.818-23.092 13.619s-14.683 10.594-19.373 18.2-6.64 17.284-3.5 25.653"/><path data-name="Caminho 272" d="M69.183 363.056a3.832 3.832 0 012.9-3.524c.989 1.993.524 4.373-.042 6.524-3.118 11.859-8.62 22.964-12.107 34.72s-4.814 24.853.347 35.977c3.953 8.522 12.037 17.531 12.378 26.918"/><path data-name="Caminho 273" d="M135.457 335.897c-19.668 22.726-39.539 46.513-48.553 75.181-6.348 20.192-7.161 42.4-17.763 60.72-2.07 3.576-4.517 7.017-5.654 10.99-2.157 7.551.365 16.418 7.089 20.475"/><path data-name="Caminho 274" d="M120.942 332.821c-3.528 4.349-5.953 9.464-8.5 14.45a275.279 275.279 0 01-34.543 52.061"/><path data-name="Caminho 275" d="M206.53 322.437a125.286 125.286 0 00-54.278 2.039"/><path data-name="Caminho 276" d="M145.943 326.924a10.522 10.522 0 00-6.081 3.981"/><path data-name="Caminho 277" d="M126.128 362.507c-5.794 23.132-19.385 43.4-29.691 64.9-10.214 21.315-17.248 43.985-24.19 66.577-.928 3.022-1.865 6.124-1.67 9.28.223 3.609 1.9 6.937 3.18 10.32 2.365 6.26 3.407 12.929 4.434 19.543 2.522 16.246 4.315 29.359 6.837 45.6"/><path data-name="Caminho 278" d="M327.967 380.564a208.254 208.254 0 01-26.846-6.337"/><path data-name="Caminho 279" d="M351.621 388.253c7.288 6.055 6.326 17.19 7.872 26.537 1.2 7.256 4.252 14.057 7.273 20.763l18.555 41.155"/><path data-name="Caminho 280" d="M284.284 534.731c.032-20.7 12.686-39.632 13.693-60.3.812-16.669-6-32.654-12.675-47.949"/><path data-name="Caminho 281" d="M267.436 496.004l9.2-23.378c2.7-6.847 5.439-14.1 4.32-21.372-.745-4.84-3.182-9.422-3.056-14.317"/><path data-name="Caminho 282" d="M276.078 410.353a278.47 278.47 0 00-22.291-19.149q-7.372-5.9-14.747-11.794a87.078 87.078 0 00-11.326-8.107c-9.164-5.181-19.984-6.884-30.5-6.433"/><path data-name="Caminho 283" d="M184.987 334.708l70.067 36.581"/><path data-name="Caminho 284" d="M134.636 390.072c-4.484 23.158-8.984 46.452-9.475 70.034a209.164 209.164 0 0036.443 121.861"/><path data-name="Caminho 285" d="M150.15 563.19c-13.977-11.692-26.394-22.585-38.231-36.44-9.61-11.249-17.75-23.862-28.786-33.717"/><path data-name="Caminho 286" d="M93.337 448.327a144.433 144.433 0 0022.86 69.725"/><path data-name="Caminho 287" d="M301.899 578.944c-3.047-3.224-8.365-2.048-12.493-.425a130.86 130.86 0 00-24.346 12.658c-10.963 7.253-21.127 16.593-26.111 28.756-3.877 9.458-4.353 19.915-4.708 30.13"/><path data-name="Caminho 288" d="M296.997 576.904a9.615 9.615 0 01-3.055-5.857 5.077 5.077 0 01.113-2.292 7.1 7.1 0 011.653-2.371c2.319-2.568 4.4-5.671 4.423-9.13s-2.812-7.085-6.254-6.743"/><path data-name="Caminho 289" d="M287.148 552.283a147.524 147.524 0 00-31.9 18.864 73.316 73.316 0 00-11.873 11.127c-13.789 16.782-14.828 40.314-15.23 62.03"/><path data-name="Caminho 290" d="M294.458 569.116c-11.286-.252-21.145 7.105-30 14.107"/><path data-name="Caminho 291" d="M285.343 553.446c-.847-6.676 1.4-13.753-1.015-20.036a38.972 38.972 0 00-3.291-5.958 86.061 86.061 0 01-6.274-13.33c-3.085-7.925-5.68-16.03-8.274-24.13l-7.45-23.26"/><path data-name="Caminho 292" d="M259.886 466.465c-.86-6.635 6.1-12.209 5.822-18.892-.126-3.042-1.752-5.79-3.335-8.39-14.215-23.347-29.844-47.543-54.017-60.3"/><path data-name="Caminho 293" d="M310.331 448.291c1.138 9.3.119 18.709-.9 28.022a67.794 67.794 0 01-2.139 12.392c-3.666 12.066-13.9 21.645-15.969 34.084"/><path data-name="Caminho 294" d="M240.056 513.85a159.908 159.908 0 00-46.985 118.6"/><path data-name="Caminho 295" d="M180.698 494.893a223.287 223.287 0 004.444 108.609"/><path data-name="Caminho 296" d="M161.603 581.962c8.386 17.211 17.165 33.221 25.551 50.431 3.218 6.605 6.594 13.416 12.23 18.128 1.8 1.506 3.806 2.77 5.513 4.383a36.1 36.1 0 014.492 5.533l14.241 20.125"/><path data-name="Caminho 297" d="M161.08 453.55a76.287 76.287 0 00-11.034 47.037"/><path data-name="Caminho 298" d="M150.15 463.672a38.976 38.976 0 00-1.811 13.044"/><path data-name="Caminho 299" d="M301.328 580.319c-6.969 10.706-24.22 13.843-26.882 26.336-1.082 5.08.433 10.317 2.029 15.26a404.958 404.958 0 0028.108 66.236"/><path data-name="Caminho 300" d="M277.453 600.028c-3.628-1.714-7.333.124-10.255 2.871s-4.558 6.577-5.873 10.366c-12.375 35.635-1.326 78.212 26.814 103.336"/><path data-name="Caminho 301" d="M249.522 644.941a89.793 89.793 0 009.341 54.428"/><path data-name="Caminho 302" d="M249.196 647.461c.574 7.539-2.269 18.756-2.722 26.3s.109 15.514 4.093 21.941"/><path data-name="Caminho 303" d="M135.559 208.96c-2.936 11.4-4.472 23.936.552 34.578 3.971 8.415 11.583 14.564 19.623 19.248s16.729 8.2 24.634 13.115c5.155 3.2 10.533 8.587 8.83 14.414"/><path data-name="Caminho 304" d="M181.19 289.768c-6.865-10-20.765-11.525-31.281-17.55a42.41 42.41 0 01-18.593-23.041 51.852 51.852 0 01-.741-29.814"/><path data-name="Caminho 305" d="M133.363 254.901a113.936 113.936 0 0021.784 32.6c1.686 1.764 3.429 3.477 5 5.34"/><path data-name="Caminho 306" d="M117.14 193.775c-9.512 5.025-17 13.127-23.865 21.405-8.883 10.7-17.16 22.116-22.475 34.971s-7.505 27.346-4.006 40.808"/><path data-name="Caminho 307" d="M89.347 239.487c-15.579 31.158-29.652 64.008-31.882 98.773a152.075 152.075 0 006.5 54.649"/><path data-name="Caminho 308" d="M59.523 434.959c-7 43.321-27.894 82.338-59.261 113.029"/><path data-name="Caminho 309" d="M63.892 459.746a143.8 143.8 0 01-36.994 59.984c-6.041 5.852-12.693 11.28-17.121 18.431"/><path data-name="Caminho 310" d="M63.137 461.188c-8.356 21.877-16.718 43.773-23.682 66.132-2.395 7.69-4.634 15.484-5.465 23.495-1.981 19.13 4.141 38.068 10.182 56.326"/><path data-name="Caminho 311" d="M51.333 550.082a236.908 236.908 0 00-.831 77.368c1.481 9.566 3.585 19.141 7.757 27.876 4.94 10.342 12.923 20.245 12.051 31.674"/><path data-name="Caminho 312" d="M84.921 577.276a458.386 458.386 0 007.95 58.408c1.983 9.8 4.289 19.549 5.852 29.429 5.012 31.69 2.833 66.073 19.72 93.352"/><path data-name="Caminho 313" d="M85.895 594.901c2.153 16.849-9.946 32.768-9.177 49.735.351 7.745 3.388 15.206 3.492 22.958s-2.18 18.684-9.9 19.4"/><path data-name="Caminho 314" d="M122.073 200.66c-4.458 5.459-6.844 12.288-8.859 19.042-4.553 15.263-7.666 31.122-7.088 47.039s5.03 31.963 14.471 44.793"/><path data-name="Caminho 315" d="M126.177 202.894a99.546 99.546 0 00.922 77.441"/><path data-name="Caminho 316" d="M141.53 303.951a57.879 57.879 0 01-11.372-18.189"/><path data-name="Caminho 317" d="M129.896 308.136a30.634 30.634 0 01-3.574-7.708c-4.253-11.993-8.548-24.141-9.69-36.819"/><path data-name="Caminho 318" d="M123.874 200.718a133.545 133.545 0 00-5.87 18.126 149.691 149.691 0 00-4.049 28.266"/><path data-name="Caminho 319" d="M109.08 260.468a71.871 71.871 0 004.124 24.124"/><path data-name="Caminho 320" d="M133.499 207.59l-1.151 4.259"/><path data-name="Caminho 321" d="M128.333 205.585a107.118 107.118 0 0010.021 82.479"/><path data-name="Caminho 322" d="M146.947 301.09a30.408 30.408 0 01-4.812-5.125"/><path data-name="Caminho 323" d="M129.905 242.398c3.818 11.1 14.4 18.251 24.49 24.254s20.956 12.285 26.146 22.816"/><path data-name="Caminho 324" d="M117.922 194.805Q104.662 215.28 91 235.49"/><path data-name="Caminho 325" d="M114.036 199.728a159.247 159.247 0 00-40.7 54.359"/><path data-name="Caminho 326" d="M71.232 262.447l-1.706 20.2"/><path data-name="Caminho 327" d="M119.075 196.318l-7.94 13.172c-4.671 7.751-9.356 15.526-13.029 23.795a177.521 177.521 0 00-8.818 26.3c-1.711 6.393-3.3 12.873-3.607 19.483a73.9 73.9 0 001.7 18 131.939 131.939 0 006.549 22.229c1.577 4.007 3.39 8 6.228 11.242"/><path data-name="Caminho 328" d="M103.099 235.686a202.423 202.423 0 005.1 87.688"/><path data-name="Caminho 329" d="M93.453 258.186a75.712 75.712 0 001.98 29.219"/><path data-name="Caminho 330" d="M96.278 292.587a36.2 36.2 0 001.544 7.084"/><path data-name="Caminho 331" d="M92.507 245.896c-4.389 17.3-12.152 33.547-17.424 50.6s-7.957 35.741-2.035 52.575"/><path data-name="Caminho 332" d="M86.505 275.316l-4.739 27.763a113.248 113.248 0 00-1.661 12.524c-.5 8.654 1 17.285 2.484 25.825"/><path data-name="Caminho 333" d="M86.688 291.455l-.951 24.2c-.288 7.314-.564 14.745 1.208 21.847"/><path data-name="Caminho 334" d="M64.871 365.036a164.282 164.282 0 01.579-31.246"/><path data-name="Caminho 335" d="M65.363 326.39l.648-4.535"/><path data-name="Caminho 336" d="M48.153 577.073a135.624 135.624 0 01-3.966 30.2c-2.394 8.73-6.53 17.107-12.826 23.609"/><path data-name="Caminho 337" d="M48.153 608.603c-2.727 8.17-9.444 17.784-16.792 22.281"/><path data-name="Caminho 338" d="M46.661 611.959q1.112 2 2.224 4.006"/><path data-name="Caminho 339" d="M71.076 506.251l-5.645 48.048c-.931 7.924-1.862 15.852-2.364 23.815a222.391 222.391 0 005.3 64.145"/><path data-name="Caminho 340" d="M77.163 648.983c-3.167-8.857-4.48-20.426-5.607-29.763-2.472-20.478-.864-41.2.748-61.771"/><path data-name="Caminho 341" d="M76.218 523.037a170.853 170.853 0 01-3.266 24.984"/><path data-name="Caminho 342" d="M78.848 535.529c-1.452 16.361-2.72 31.082-3.8 47.471-1.134 17.146-2.014 34.757 3.179 51.137"/><path data-name="Caminho 343" d="M81.846 555.145q.612 23.583-.2 47.174"/><path data-name="Caminho 344" d="M78.06 630.713q1.686-9.6 2.635-19.307"/><path data-name="Caminho 345" d="M68.251 674.872a457.375 457.375 0 01-12.544-81.1"/><path data-name="Caminho 346" d="M77.581 682.162c1.22-3.108.474-6.607-.4-9.829a140.531 140.531 0 00-6.46-18.558"/><path data-name="Caminho 347" d="M68.791 647.215a3.2 3.2 0 00.567 1.99"/><path data-name="Caminho 348" d="M69.946 454.024c-4.428 24.305-16.6 46.517-22.825 70.424a148.353 148.353 0 00-3.86 53.738"/><path data-name="Caminho 349" d="M66.028 499.536a367.012 367.012 0 00-9.993 87.153"/><path data-name="Caminho 350" d="M63.661 495.289a191.219 191.219 0 00-10.354 39.66"/><path data-name="Caminho 351" d="M62.736 442.722a168.551 168.551 0 01-15.194 43.119"/><path data-name="Caminho 352" d="M198.855 244.63a242.614 242.614 0 00-28.215-26.865"/><path data-name="Caminho 353" d="M166.776 214.208l-3.96-3.43"/><path data-name="Caminho 354" d="M79.997 501.094c-1.146 12.139 8.6 22.134 14.841 32.609 8.361 14.039 10.8 30.708 13.072 46.889.518 3.7 1.037 7.469.381 11.144-1.373 7.686-7.561 13.588-10.35 20.879"/><path data-name="Caminho 355" d="M489.89 465.956c-2.859-1.079-5.716-2.157-8.541-3.321a153.2 153.2 0 01-56.034-39.845"/><path data-name="Caminho 356" d="M493.283 463.907c2.165.516 1.74 3.759.6 5.672a31.079 31.079 0 01-4.114 5.451c-4.877 5.168-11.913 9.347-13 16.37a60.959 60.959 0 00-.15 6.386c-.388 8.124-6.082 14.862-11.251 21.142s-10.361 13.668-9.463 21.751"/><path data-name="Caminho 357" d="M427.9 421.015c-1.905-.775-4.153.19-5.523 1.724a17.564 17.564 0 00-2.828 5.446 72.789 72.789 0 01-8.22 15.231c-2.611 3.7-5.63 7.281-6.863 11.639-.631 2.229-.767 4.586-1.529 6.774a24.854 24.854 0 01-4.28 6.9l-18.382 23.464"/><path data-name="Caminho 358" d="M455.298 543.804c.622 2.715-.6 5.583-2.472 7.645a28.391 28.391 0 01-6.726 4.9 7.392 7.392 0 00-2.686 2.273 10.98 10.98 0 00-.949 2.864 11.714 11.714 0 01-18.66 5.967"/><path data-name="Caminho 359" d="M445.503 557.486c-1.7 4.445.2 9.946-2.423 13.917a14.089 14.089 0 01-3.141 3.084l-8.462 6.726a110.5 110.5 0 01-10.13 7.443c-17.814 11.114-42.089 10.824-59.632-.712"/><path data-name="Caminho 360" d="M452.834 539.243l-.895 3.755"/><path data-name="Caminho 361" d="M449.415 537.342a6.175 6.175 0 01-1.927 3.785"/><path data-name="Caminho 362" d="M444.851 535.834l-1.987 2.581"/><path data-name="Caminho 363" d="M439.955 533.174a5.685 5.685 0 01-1.947 3.777"/><path data-name="Caminho 364" d="M436.156 530.545l-2.625 3.43"/><path data-name="Caminho 365" d="M431.613 527.494a10.312 10.312 0 01-2.17 4.656"/><path data-name="Caminho 366" d="M427.395 525.59a14.029 14.029 0 01-1.475 3.808"/><path data-name="Caminho 367" d="M423.319 522.96a8.688 8.688 0 01-2.357 4.144"/><path data-name="Caminho 368" d="M419.403 520.634l-2.911 4.25"/><path data-name="Caminho 369" d="M416.04 518.772l-3.788 3.789"/><path data-name="Caminho 370" d="M410.338 515.736a9.879 9.879 0 01-2.517 4.664"/><path data-name="Caminho 371" d="M406.939 511.944a28.481 28.481 0 01-2.98 4.963"/><path data-name="Caminho 372" d="M401.262 509.677l-2.617 3.062"/><path data-name="Caminho 373" d="M397.495 505.896a7.706 7.706 0 01-3.013 4.217"/><path data-name="Caminho 374" d="M394.087 505.152l-3.409 3.79"/><path data-name="Caminho 375" d="M389.575 501.79l-3.39 2.677"/><path data-name="Caminho 376" d="M386.584 499.144a9.766 9.766 0 01-4.643 3.337"/><path data-name="Caminho 377" d="M383.826 496.411a30.554 30.554 0 01-3.793 3.781"/><path data-name="Caminho 378" d="M380.22 492.512c-4.437 2.842-9.024 6.386-10.228 11.517-.9 3.826.319 7.9 2.431 11.215s5.057 6 7.966 8.639l20.794 18.884"/><path data-name="Caminho 379" d="M369.668 509.408a19.431 19.431 0 01-11.691 10.2"/><path data-name="Caminho 380" d="M355.402 519.744c8.762.142 16.4 5.674 23.381 10.97"/><path data-name="Caminho 381" d="M355.402 519.744c-4.143-.021-5.72 4.532-7.483 8.281-2.231 4.744-5.578 8.861-8.89 12.927l-7.555 9.272a77.289 77.289 0 01-7.511 8.354c-3.038 2.781-6.5 5.057-9.656 7.705-4.889 4.1-8.985 9.057-12.979 14.035"/><path data-name="Caminho 382" d="M408.446 575.169c-3.682.762-7.461-1.324-9.887-4.2s-3.811-6.453-5.392-9.864c-6.746-14.542-18.76-27.592-34.37-31.242"/><path data-name="Caminho 383" d="M426.264 549.094a67.854 67.854 0 01-13.66-10.214"/><path data-name="Caminho 384" d="M343.328 544.393c1.764 5.794 3.544 11.628 6.388 16.974s6.855 10.234 12.164 13.147"/><path data-name="Caminho 385" d="M431.968 581.411c-6.462 6.972-9.778 16.2-13.467 24.955s-8.257 17.717-16.185 22.962c-4.355 2.881-9.471 4.456-13.818 7.349"/><path data-name="Caminho 386" d="M401.091 630.382c-7.3 12.465-15.93 24.45-27.456 33.154s-26.32 13.85-40.559 11.423"/><path data-name="Caminho 387" d="M395.99 638.615c-15.112 24.931-34.469 45.309-50.241 69.828-4.576 7.115-8.8 14.675-15.24 20.165a36.068 36.068 0 01-34.266 6.6c-5.92-2-11.187-5.517-16.376-9-20.2-13.547-40.7-27.358-56.245-46.07"/><path data-name="Caminho 388" d="M268.161 649.431c4.566 14.308 9.216 28.8 17.293 41.458s20.113 23.5 34.75 26.864"/><path data-name="Caminho 389" d="M293.197 630.549c3.725 8.955 11.788 15.231 19.519 21.087"/><path data-name="Caminho 390" d="M426.268 421.894q7.055-10.506 14.113-21.012a28 28 0 003.17-5.609c2.269-6.024.175-12.728.38-19.163.19-5.971 2.37-11.67 3.726-17.487 1.541-6.614 2.02-13.423 2.494-20.2"/><path data-name="Caminho 391" d="M474.816 276.295a24.94 24.94 0 013.207-14.234l2.426 3.677a16.618 16.618 0 012.019 3.712c.973 2.867.315 6.012-.521 8.92"/><path data-name="Caminho 392" d="M474.656 278.432c-2.041 2.586-2.3 6.1-3.361 9.219-.941 2.755-2.569 5.329-2.825 8.228a19.824 19.824 0 004.794 1.555"/><path data-name="Caminho 393" d="M474.773 303.638a30.612 30.612 0 01-8.519-.516"/><path data-name="Caminho 394" d="M468.008 296.787a10.624 10.624 0 00-1.8 5.451"/><path data-name="Caminho 395" d="M465.389 303.848c-2.618 3.072-2.86 7.428-3.538 11.408a43.742 43.742 0 01-9.283 20.317"/><path data-name="Caminho 396" d="M479.699 262.849a9.34 9.34 0 017.078 3.877 23.764 23.764 0 013.534 7.524c2.728 8.544 4.336 18.189.355 26.225-.673 1.357-1.908 2.829-3.384 2.486"/><path data-name="Caminho 397" d="M489.464 303.947a55.573 55.573 0 01-2.061 10.807l-3.941 15.135a6.462 6.462 0 01-1.075 2.548 2.209 2.209 0 01-2.477.781"/><path data-name="Caminho 398" d="M482.791 333.42c1.958 2.58 3.034 5.926 5.665 7.816"/><path data-name="Caminho 399" d="M476.486 346.772a104.923 104.923 0 01-12.8 11.42"/><path data-name="Caminho 400" d="M595.703 281.636a19.142 19.142 0 0110.4-4.547 2.934 2.934 0 011.7.181 3.171 3.171 0 011.161 1.419 7.918 7.918 0 011.256 3.857 5.329 5.329 0 01-2.365 3.952 15.756 15.756 0 01-4.327 1.961"/><path data-name="Caminho 401" d="M610.113 284.358c-.069 1.637-1.179 3.025-2.287 4.229-9.134 9.934-21.494 16.138-32.81 23.492-11.663 7.58-22.375 16.518-33.055 25.432l-10.516 8.777"/><path data-name="Caminho 402" d="M605.899 276.1c-.964-1.537-3.125-1.7-4.927-1.5-6.937.793-13.157 4.484-19.136 8.09l-17.832 10.754c-11.1 6.695-22.257 13.43-32.141 21.819-2.592 2.2-5.1 4.514-7.857 6.5-5.183 3.728-11.148 6.213-17.146 8.4"/><path data-name="Caminho 403" d="M507.322 330.047c-8.627 2.567-14.587 11.01-23.271 13.381a6.756 6.756 0 00-3.116 1.336"/><path data-name="Caminho 404" d="M559.814 315.317a42.024 42.024 0 00-4.468-5.472"/><path data-name="Caminho 405" d="M555.612 317.253l-1.943-2.034"/><path data-name="Caminho 406" d="M541.975 337.219a4.129 4.129 0 001.723 5.516"/><path data-name="Caminho 407" d="M513.235 355.715l-5.947.726"/><path data-name="Caminho 408" d="M631.766 284.065a5.433 5.433 0 00-1.522-4.149 16.142 16.142 0 00-3.607-2.758c-1.484-.928-3.3-1.885-4.894-1.17"/><path data-name="Caminho 409" d="M631.993 284.327a34.584 34.584 0 01-7.371 6.271"/><path data-name="Caminho 410" d="M622.748 275.511l-2.743 2.977c-1.023 1.109-2.1 2.341-2.215 3.846"/><path data-name="Caminho 411" d="M622.649 275.986a11.764 11.764 0 00-3.427-.634c-3.225.048-5.773 2.628-7.934 5.022"/><path data-name="Caminho 412" d="M583.267 307.256l-18.222 20.289a64.459 64.459 0 01-7.481 7.467 78.235 78.235 0 01-7.222 4.868q-6.373 4.032-12.4 8.581"/><path data-name="Caminho 413" d="M629.706 286.544c.947 4.2-2.18 8.117-5.1 11.277-10.272 11.119-20.687 22.1-31.1 33.089l-24.72 26.073-10.922 11.52"/><path data-name="Caminho 414" d="M551.325 376.09a38.152 38.152 0 01-4.716 6.486 12.818 12.818 0 01-6.854 3.929c-.9.153-1.829.177-2.729.357-1.043.209-2.032.624-3.054.922a13.927 13.927 0 01-3.72.555"/><path data-name="Caminho 415" d="M581.451 331.767a18.967 18.967 0 00-5.179-3.881"/><path data-name="Caminho 416" d="M583.8 326.892a7.223 7.223 0 00-3.526-2.736"/><path data-name="Caminho 417" d="M628.964 309.933a18.948 18.948 0 013.166-3.6 4.668 4.668 0 011.557-1c1.781-.6 3.571.759 4.964 2.022 1.546 1.4 3.242 3.26 2.714 5.279a5.8 5.8 0 01-1.7 2.455l-4.884 4.916"/><path data-name="Caminho 418" d="M632.313 305.962c-2.154-1.3-4.88.139-6.9 1.64a74.227 74.227 0 00-14.1 13.781c-2.388 3.054-4.56 6.323-7.447 8.91-2.627 2.352-5.761 4.063-8.5 6.278a29.42 29.42 0 00-8.464 11.115"/><path data-name="Caminho 419" d="M588.871 343.509q-8.429 5.212-16.436 11.07a32.584 32.584 0 00-5.387 4.624"/><path data-name="Caminho 420" d="M578.598 349.95l-2.012-1.1"/><path data-name="Caminho 421" d="M641.067 314.567c-2.518 7.619-8.108 13.765-13.549 19.663l-14.06 15.241a178.575 178.575 0 01-12.565 12.743c-7.48 6.631-16.009 11.951-24.038 17.9s-15.722 12.727-20.713 21.387"/><path data-name="Caminho 422" d="M595.72 359.596a29.361 29.361 0 00-2.891-4.531"/><path data-name="Caminho 423" d="M592.506 363.051a9.473 9.473 0 01-3.325-3.736"/><path data-name="Caminho 424" d="M550.77 403.686c-.882 1.409-2.862 1.466-4.524 1.533a49.021 49.021 0 00-9.369 1.608"/><path data-name="Caminho 425" d="M623.273 353.721a8.572 8.572 0 014.788-3.53 5.047 5.047 0 013.654.171 6.332 6.332 0 012.663 3.652 1.61 1.61 0 01.126 1.089 1.64 1.64 0 01-.706.727q-3.667 2.445-7.508 4.611"/><path data-name="Caminho 426" d="M630.722 350.126c-1.713-2.021-4.861-2.215-7.345-1.292s-4.519 2.722-6.67 4.269c-6.386 4.594-13.742 8.527-19.848 12.483"/><path data-name="Caminho 427" d="M630.343 358.843a164.769 164.769 0 01-15.876 15.507c-3.5 2.984-7.127 5.827-10.383 9.072-4.137 4.125-8.125 9.159-13.873 10.208"/><path data-name="Caminho 428" d="M588.643 395.93c-9.024 4.961-15.538 13.742-24.717 18.412a72.973 72.973 0 01-7.41 3.068 292.845 292.845 0 00-37.265 17.115 49.507 49.507 0 00-10.71 7.255 54.123 54.123 0 00-7.27 9.347q-5.038 7.562-10.078 15.123"/><path data-name="Caminho 429" d="M598.914 384.56a11.43 11.43 0 00-4.107-4.222"/><path data-name="Caminho 430" d="M594.775 385.79a8.933 8.933 0 00-2.316-1.907"/><path data-name="Caminho 431" d="M588.761 371.794q-6.818 6.184-13.977 11.975a15.743 15.743 0 01-5.362 3.235"/><path data-name="Caminho 432" d="M539.563 424.543a50.534 50.534 0 00-.232 21.618 43.1 43.1 0 011.291 7.413c.211 6.927-4.243 13.021-8.487 18.5l-5.954 7.686"/><path data-name="Caminho 433" d="M585.873 459.034l-4.855 3.862a30.512 30.512 0 01-6.547 4.347c-6.38 2.8-13.736.956-20.446-.921"/><path data-name="Caminho 434" d="M546.765 459.657l2.523 2.872"/><path data-name="Caminho 435" d="M687.66 402.711c2.555 1.98 3.358 5.619 2.751 8.794s-2.384 5.991-4.222 8.651c-8.888 12.862-20 24.053-31.79 34.317-3.4 2.963-6.934 5.928-9.268 9.791"/><path data-name="Caminho 436" d="M686.255 402.517c-5.292 1.28-9.56 5.174-13.029 9.371s-6.422 8.857-10.408 12.566a94.052 94.052 0 01-8.448 6.493 96.373 96.373 0 00-14.017 12.65"/><path data-name="Caminho 437" d="M641.88 445.059a7.907 7.907 0 01-3.836-3.127 10.228 10.228 0 01-.949-7.949 23.79 23.79 0 013.652-7.331"/><path data-name="Caminho 438" d="M673.243 427.795l-3.953-3.157"/><path data-name="Caminho 439" d="M660.162 440.031a8.666 8.666 0 00-3.448-1.917"/><path data-name="Caminho 440" d="M642.403 468.323a48.163 48.163 0 01-7.784 7.905c-5.92 5.153-11.87 10.328-18.51 14.512-6.595 4.154-13.791 7.283-20.425 11.375s-12.863 9.376-16.153 16.444"/><path data-name="Caminho 441" d="M579.839 508.177q-4.349-6.4-9.147-12.475"/><path data-name="Caminho 442" d="M568.409 490.575l-2.573-2.255"/><path data-name="Caminho 443" d="M683.666 363.321c2.719.885 4.328 3.859 4.459 6.714s-.923 5.624-2.056 8.249c-2.552 5.913-5.662 11.7-10.164 16.3-2.251 2.3-4.822 4.282-6.976 6.674-3.679 4.085-6 9.208-9.323 13.585-7.031 9.252-18.7 15.477-21.9 26.647"/><path data-name="Caminho 444" d="M683.973 363.442c-1.278-.973-3.111-.248-4.484.584-12.511 7.588-19.5 21.532-29.642 32.076-2.053 2.135-4.247 4.139-6.155 6.4-4.826 5.727-7.912 13.173-14.215 17.217"/><path data-name="Caminho 445" d="M656.446 406.81a11.019 11.019 0 00-4.8-3.785"/><path data-name="Caminho 446" d="M629.547 419.488a8.212 8.212 0 01-.284-11.439"/><path data-name="Caminho 447" d="M681.399 342.758c1.836.759 2.553 3.121 2.1 5.056a12.789 12.789 0 01-3.042 5.056l-16.941 20.205c-9.311 11.106-18.641 22.233-28.986 32.383-2.477 2.429-5.009 4.8-7.4 7.31"/><path data-name="Caminho 448" d="M678.565 341.322c-6.828-.738-12.753 4.352-17.722 9.094l-26.314 25.12c-5.313 5.071-10.7 10.236-14.358 16.6-1.97 3.427-4.354 7.755-8.3 7.517"/><path data-name="Caminho 449" d="M661.798 363.945l-2.783-2.9"/><path data-name="Caminho 450" d="M643.656 385.499a38.653 38.653 0 00-4.565-3.954"/><path data-name="Caminho 451" d="M611.7 399.484c-1.794-1.752-1.727-4.755-.626-7.007s3.01-3.981 4.709-5.824c7.092-7.7 11.047-18.118 19.129-24.765 1.875-1.542 3.934-2.845 5.892-4.281a106.608 106.608 0 008.646-7.333 29.055 29.055 0 004.574-4.86 14.564 14.564 0 002.373-5.974 10.248 10.248 0 00-.648-5.861 6.476 6.476 0 00-4.419-3.7"/><path data-name="Caminho 452" d="M651.331 329.875c-5.333.056-9.916 3.3-14.048 6.677-5.2 4.248-11.812 9.7-17.013 13.947"/><path data-name="Caminho 453" d="M637.526 351.667a14.848 14.848 0 00-4.194-4.532"/><path data-name="Caminho 454" d="M620.27 371.353a7.118 7.118 0 01-1.522-.733"/><path data-name="Caminho 455" d="M670.626 388.461l-1.051-1.034"/><path data-name="Caminho 456" d="M622.595 456.505l-12.069-21.44c-2.168-3.851-4.366-7.743-7.391-10.963"/><path data-name="Caminho 457" d="M595.157 415.508a37.542 37.542 0 01-2.311 21.368"/><path data-name="Caminho 458" d="M580.779 520.072c-8.283-4.079-14.323-11.5-21.375-17.462-1.62-1.37-3.3-2.667-4.98-3.964l-9.9-7.643c-6.736-5.2-13.844-10.569-22.236-11.971"/><path data-name="Caminho 459" d="M581.267 520.312c-1.937 6.547-7.1 11.525-11.2 16.988-7.687 10.258-11.853 22.762-19.144 33.306-2.265 3.277-4.861 6.42-6.2 10.174-.972 2.735-1.29 5.811-3.117 8.066"/><path data-name="Caminho 460" d="M521.743 478.671c-9.2 11.2-15.071 24.738-23.506 36.52-2.467 3.445-5.154 6.742-7.379 10.347-1.717 2.783-3.158 5.743-5.08 8.391a28.01 28.01 0 01-12.535 9.623"/><path data-name="Caminho 461" d="M470.54 544.339c-1.722.685-2.544 2.773-2.343 4.616a12.175 12.175 0 002.19 5.058c11.067 17.326 26.045 32.426 33.536 51.567"/><path data-name="Caminho 462" d="M518.796 584.258c-2.7-3.272-6.485-5.425-10.182-7.5l-25.7-14.449"/><path data-name="Caminho 463" d="M540.023 582.06a6.774 6.774 0 01-2.4 4.1"/><path data-name="Caminho 464" d="M537.575 580.428a6.5 6.5 0 00-2.105 3.531"/><path data-name="Caminho 465" d="M534.319 577.164l-2.973 4.584"/><path data-name="Caminho 466" d="M529.716 574.48a9.372 9.372 0 00-2.353 3.37"/><path data-name="Caminho 467" d="M526.368 571.484l-2.708 4.132"/><path data-name="Caminho 468" d="M521.723 567.64a8.849 8.849 0 01-2.981 4.208"/><path data-name="Caminho 469" d="M517.56 565.366a10.38 10.38 0 01-2.31 3.359"/><path data-name="Caminho 470" d="M514.512 563.083l-2.265 4.551"/><path data-name="Caminho 471" d="M511.025 560.382l-2.247 3.8"/><path data-name="Caminho 472" d="M507.201 558.13a5.219 5.219 0 01-2.828 3.2"/><path data-name="Caminho 473" d="M503.65 555.939a13.532 13.532 0 01-2.348 3.765"/><path data-name="Caminho 474" d="M499.09 552.788c.2 1.626-.935 3.083-2 4.328"/><path data-name="Caminho 475" d="M495.157 551.242a8.378 8.378 0 00-3.33 3.908"/><path data-name="Caminho 476" d="M490.217 548.228a7.619 7.619 0 00-2.164 3.137"/><path data-name="Caminho 477" d="M487.76 546.116q-1.311 2.281-2.62 4.565"/><path data-name="Caminho 478" d="M483.773 544.439a8.967 8.967 0 00-2.209 3.118"/><path data-name="Caminho 479" d="M481.888 542.946a12.118 12.118 0 01-2.991 2.278"/><path data-name="Caminho 480" d="M423.851 594.21a623.44 623.44 0 0019.838 112.369c3.627 13.289 7.737 26.842 6.546 40.566"/><path data-name="Caminho 481" d="M210.49 749.548a230.325 230.325 0 011.211-42.022c.735-6.087 1.716-12.2 1.263-18.316-.709-9.547-4.885-19.119-2.515-28.394"/><path data-name="Caminho 482" d="M200.092 674.689q-7.079 22.5-14.655 44.848a72.8 72.8 0 01-3.605 9.215 74.055 74.055 0 01-7.087 10.828l-10.508 14.182"/><path data-name="Caminho 483" d="M154.528 599.732c-8.422 31.319-16.85 62.657-26.977 93.466-2.96 9-6.088 18.06-6.9 27.5"/><path data-name="Caminho 484" d="M539.21 592.688c-6.588 4.632-8.29 13.426-11.044 20.994a60.539 60.539 0 01-10.638 18.343 45.09 45.09 0 00-4.984 6.363c-1.4 2.431-2.148 5.171-3.188 7.776-2.722 6.823-7.4 12.656-12.01 18.374l-5.531 6.862-20.8 25.8a182.583 182.583 0 01-11.938 13.838c-3.471 3.518-7.22 6.748-10.965 9.974"/><path data-name="Caminho 485" d="M469.138 549.857a15.539 15.539 0 01-6.557 8.6"/><path data-name="Caminho 486" d="M461.648 558.538c7.4 2.78 13.018 8.969 17.307 15.609s7.546 13.911 12 20.445"/><path data-name="Caminho 487" d="M461.464 558.734a11.939 11.939 0 00-5.216 3.944 18.718 18.718 0 00-3.679 7.656"/><path data-name="Caminho 488" d="M501.436 650.226a56.139 56.139 0 00-9.949-36.385"/><path data-name="Caminho 489" d="M462.752 603.524a149.157 149.157 0 0122.435 26.13"/><path data-name="Caminho 490" d="M441.227 582.706l1.881-4.922a10.036 10.036 0 011.711-3.226 6.675 6.675 0 016.223-1.7 17.248 17.248 0 016.051 2.878 92.227 92.227 0 0122.466 21.183"/><path data-name="Caminho 491" d="M441.416 582.363a24.432 24.432 0 0118.089 5.119"/><path data-name="Caminho 492" d="M441.426 582.804l-1.057.1-9.335 9.5c-.683.7-1.367 1.392-2.115 2.018a29.909 29.909 0 01-4.649 3"/><path data-name="Caminho 493" d="M368.436 677.327l3.125 31.194a7.589 7.589 0 01-.441 4.418c-.722 1.32-2.654 2.072-3.775 1.07a3.8 3.8 0 01-.942-2.335l-4.149-26.226"/><path data-name="Caminho 494" d="M370.613 713.536l.735 5.748c.734 5.739 1.471 11.53.985 17.3a1.309 1.309 0 01-1.958-.065 3.783 3.783 0 01-.74-2.094l-.4-2.85a80.281 80.281 0 01-.874-8.321c-.113-3.2.142-6.5-.958-9.5"/><path data-name="Caminho 495" d="M351.077 700.309a152.211 152.211 0 015.961 14.689 40.46 40.46 0 012.338 9.464c.43 4.674-.556 9.35-1.537 13.941l-4.215 19.73"/><path data-name="Caminho 496" d="M341.666 715.73l4.834 13.656a24.861 24.861 0 011.308 4.632c.86 5.864-2.5 11.492-3.144 17.383"/><path data-name="Caminho 497" d="M285.703 729.75c-1.971 9.063-9.632 15.947-12.236 24.849"/><path data-name="Caminho 498" d="M346.655 389.13l-5.439 3.329a10.243 10.243 0 01-3.616 1.613 7.519 7.519 0 01-5.908-2.124c-1.629-1.422-2.888-3.212-4.381-4.776-4.592-4.812-11.09-7.214-17.349-9.465"/></g></svg>