<svg xmlns="http://www.w3.org/2000/svg" width="389.545" height="134.307" viewBox="0 0 389.545 134.307">
  <g id="Grupo_35" data-name="Grupo 35" transform="translate(-229.784 -329.255)">
    <g id="Grupo_31" data-name="Grupo 31" transform="translate(229.784 329.256)">
      <path id="Caminho_82" data-name="Caminho 82" d="M370.571,353.047V342.738H333.917v47.977h.684l14.207-14.207.553-.553H362v-9.687h-2.952l4.844-4.844H348.808v-8.378Z" transform="translate(-262.522 -333.494)" fill="#42e9d6"/>
      <path id="Caminho_83" data-name="Caminho 83" d="M673.4,385.657a6.136,6.136,0,0,0-1.144-.612l3.206,3.206A8.8,8.8,0,0,0,673.4,385.657Z" transform="translate(-368.889 -346.795)" fill="#42e9d6"/>
      <path id="Caminho_84" data-name="Caminho 84" d="M682.655,390.715H699.17s-20.7-20.584-22.468-21.175a17.907,17.907,0,0,0,5.206-1.9,14.039,14.039,0,0,0,4.16-19.358,11.186,11.186,0,0,0-5.858-4.369,35.911,35.911,0,0,0-10.505-1.178H645v10.318l18.688,18.688C664.079,371.91,682.655,390.715,682.655,390.715Zm-22.768-38.29H666.4q4.057,0,5.53,1.244a4.86,4.86,0,0,1,.54,6.349,3.922,3.922,0,0,1-2.405,1.506,22.365,22.365,0,0,1-3.927.654h-6.251Z" transform="translate(-360.32 -333.494)" fill="#42e9d6"/>
      <path id="Caminho_85" data-name="Caminho 85" d="M659.887,401.453s-.77-24.88,0-24.557H645v24.557Z" transform="translate(-360.32 -344.232)" fill="#42e9d6"/>
      <path id="Caminho_86" data-name="Caminho 86" d="M485.725,342.738v11.639h24.041l-8.921,8.921v27.417H515.67v-36.13h15.12V342.738Z" transform="translate(-310.248 -333.494)" fill="#42e9d6"/>
      <path id="Caminho_87" data-name="Caminho 87" d="M445.054,352.425v-9.687H430.262v9.687h5.586v9.752h-5.586V372a8.333,8.333,0,0,1-2.176,6.164,9.37,9.37,0,0,1-12.044-.033A8.354,8.354,0,0,1,413.866,372V342.738H399.073v28.584a28.661,28.661,0,0,0,1.375,8.111,15.213,15.213,0,0,0,3.158,5.527,17.329,17.329,0,0,0,5.089,4.136,20,20,0,0,0,6.922,1.946,65.261,65.261,0,0,0,7.641.49,29.9,29.9,0,0,0,10.375-1.6,16.582,16.582,0,0,0,5.939-3.973,17.344,17.344,0,0,0,4.157-6.607,24.088,24.088,0,0,0,1.325-8.029v-9.145h6.714v-9.752Z" transform="translate(-283.006 -333.494)" fill="#42e9d6"/>
      <path id="Caminho_88" data-name="Caminho 88" d="M609.7,352.425v-9.687H594.907v9.687h5.586v9.752h-5.586V372a8.333,8.333,0,0,1-2.176,6.164,9.37,9.37,0,0,1-12.044-.033A8.355,8.355,0,0,1,578.511,372V342.738H563.718v28.584a28.634,28.634,0,0,0,1.375,8.111,15.2,15.2,0,0,0,3.158,5.527,17.329,17.329,0,0,0,5.089,4.136,20,20,0,0,0,6.921,1.946,65.282,65.282,0,0,0,7.642.49,29.9,29.9,0,0,0,10.375-1.6,16.582,16.582,0,0,0,5.94-3.973,17.333,17.333,0,0,0,4.156-6.607,24.071,24.071,0,0,0,1.326-8.029v-9.145h6.714v-9.752Z" transform="translate(-334.768 -333.494)" fill="#42e9d6"/>
      <g id="Grupo_29" data-name="Grupo 29" transform="translate(338.854 2.867)">
        <path id="Caminho_89" data-name="Caminho 89" d="M738.843,368.442q0-7.331,2.716-10.5a9,9,0,0,1,7.2-3.175,10.438,10.438,0,0,1,4.568.965l9.192-9.192a28.944,28.944,0,0,0-13.727-3q-11.684,0-18.229,6.546t-6.545,18.294a27.507,27.507,0,0,0,3.077,13.582l11.789-11.789Q738.844,369.337,738.843,368.442Z" transform="translate(-724.018 -336.612)" fill="#42e9d6"/>
        <path id="Caminho_90" data-name="Caminho 90" d="M763.019,368.406a26.035,26.035,0,0,1,.255,3.718q0,8.052-2.618,11.16a9.135,9.135,0,0,1-7.4,3.109,9.414,9.414,0,0,1-6.184-2.045l-9.158,9.158a19.066,19.066,0,0,0,2.4,1.4q5.318,2.585,13.435,2.585,7.986,0,13.336-2.995a20.185,20.185,0,0,0,8.182-8.378q2.83-5.383,2.831-13.794c0-6.059-1.349-11.044-4.007-14.988Z" transform="translate(-728.388 -340.95)" fill="#42e9d6"/>
        <line id="Linha_4" data-name="Linha 4" x1="18.15" y2="18.15" transform="translate(0.539 43.399)" fill="#42e9d6"/>
        <line id="Linha_5" data-name="Linha 5" x1="18.15" y2="18.15" transform="translate(29.426)" fill="#42e9d6"/>
      </g>
      <g id="Grupo_30" data-name="Grupo 30">
        <path id="Caminho_91" data-name="Caminho 91" d="M244.609,364.261q0-7.332,2.716-10.506a9,9,0,0,1,7.2-3.174,10.438,10.438,0,0,1,4.568.965l9.192-9.192a28.936,28.936,0,0,0-13.727-3q-11.684,0-18.229,6.546t-6.545,18.294a27.509,27.509,0,0,0,3.077,13.583l11.789-11.79Q244.61,365.155,244.609,364.261Z" transform="translate(-229.784 -332.431)" fill="#42e9d6"/>
        <path id="Caminho_92" data-name="Caminho 92" d="M268.785,364.225a26.037,26.037,0,0,1,.255,3.718q0,8.051-2.618,11.16a9.137,9.137,0,0,1-7.4,3.109,9.41,9.41,0,0,1-6.184-2.045l-9.158,9.159a19.141,19.141,0,0,0,2.4,1.395q5.319,2.585,13.435,2.585,7.986,0,13.336-2.994a20.184,20.184,0,0,0,8.182-8.378q2.83-5.384,2.831-13.795c0-6.058-1.349-11.043-4.007-14.988Z" transform="translate(-234.154 -336.768)" fill="#42e9d6"/>
        <line id="Linha_6" data-name="Linha 6" x1="18.15" y2="18.15" transform="translate(0.539 43.399)" fill="#42e9d6"/>
        <line id="Linha_7" data-name="Linha 7" x1="18.15" y2="18.15" transform="translate(29.426)" fill="#42e9d6"/>
      </g>
    </g>
    <g id="Grupo_33" data-name="Grupo 33" transform="translate(235.943 383.465)">
      <g id="Grupo_32" data-name="Grupo 32">
        <path id="Caminho_93" data-name="Caminho 93" d="M252.54,427.353c10.329,0,15.947,5.618,15.947,16.038v21.654c0,10.42-5.618,16.038-15.947,16.038H238.767v-53.73Zm-4.168,44.85h3.806c4.621,0,6.705-2.446,6.705-7.792V444.025c0-5.346-2.084-7.793-6.705-7.793h-3.806Z" transform="translate(-238.767 -414.305)" fill="#fff"/>
        <path id="Caminho_94" data-name="Caminho 94" d="M314.423,481.083l-2.084-14.407h-10.6l-2.084,14.407h-9.6l10.964-53.73h12.232l10.964,53.73Zm-11.417-23.106h8.064l-3.9-17.033H306.9Z" transform="translate(-254.889 -414.305)" fill="#fff"/>
        <path id="Caminho_95" data-name="Caminho 95" d="M383.312,436.232v13.092h14.045v8.88H383.312v14h17.4v8.88h-27v-53.73h27v8.879Z" transform="translate(-281.19 -414.305)" fill="#fff"/>
        <path id="Caminho_96" data-name="Caminho 96" d="M438.758,427.353c10.33,0,15.947,5.618,15.947,16.038v21.654c0,10.42-5.617,16.038-15.947,16.038H424.985v-53.73ZM434.59,472.2h3.8c4.622,0,6.705-2.446,6.705-7.792V444.025c0-5.346-2.084-7.793-6.705-7.793h-3.8Z" transform="translate(-297.311 -414.305)" fill="#fff"/>
        <path id="Caminho_97" data-name="Caminho 97" d="M510.876,466.857c0,9.967-5.709,15.132-14.951,15.132-9.061,0-14.769-5.165-14.769-15.132v-39.5H490.4v39.233c0,4.621,2.084,6.343,5.436,6.343s5.437-1.722,5.437-6.343V427.353h9.6Z" transform="translate(-314.97 -414.305)" fill="#fff"/>
        <path id="Caminho_98" data-name="Caminho 98" d="M567.045,441.254v5.708l-9.242-4.4v-.316c0-5.074-1.9-7.34-5.436-7.34s-5.438,2.265-5.438,6.433v24.917c0,4.168,1.9,6.433,5.438,6.433s5.436-2.265,5.436-7.34v-9.976l9.242,3.362v7.612c0,9.6-5.527,15.223-14.951,15.223-9.333,0-14.769-5.619-14.769-15.223v-25.1c0-9.6,5.437-15.222,14.769-15.222C561.518,426.032,567.045,431.649,567.045,441.254Z" transform="translate(-332.629 -413.89)" fill="#fff"/>
        <path id="Caminho_99" data-name="Caminho 99" d="M611.657,481.083l-2.084-14.407h-10.6l-2.084,14.407h-9.6l10.964-53.73h12.233l10.963,53.73ZM600.24,457.977H608.3l-3.9-17.033h-.271Z" transform="translate(-348.335 -414.305)" fill="#fff"/>
        <path id="Caminho_100" data-name="Caminho 100" d="M674.759,441.254v5.708l-9.242-4.4v-.316c0-5.074-1.9-7.34-5.436-7.34s-5.436,2.265-5.436,6.433v24.917c0,4.168,1.9,6.433,5.436,6.433s5.436-2.265,5.436-7.34v-9.976l9.242,3.362v7.612c0,8.789-4.621,14.226-12.685,15.132v2.356c4.531,0,6.705,1.541,6.705,4.8,0,3.624-2.9,5.346-9.152,5.346-5.708,0-8.7-1.9-8.7-5.617v-.544l6.705-.363v.725a2.086,2.086,0,1,0,4.169,0c0-1.993-.815-2.718-3.172-2.718h-.906v-3.988c-8.064-.815-12.685-6.251-12.685-15.132v-25.1c0-9.6,5.436-15.222,14.77-15.222C669.232,426.032,674.759,431.649,674.759,441.254Z" transform="translate(-366.493 -413.89)" fill="#fff"/>
        <path id="Caminho_101" data-name="Caminho 101" d="M719.371,475.1l-2.084-14.407h-10.6L704.6,475.1H695l10.964-53.73h12.233l10.964,53.73Zm-6.886-65.328c1.813,1,2.537,1.268,3.353,1.268,1.36,0,2.356-.725,3.625-2.537l3.623,3.353c-2.265,3.9-4.258,5.346-7.067,5.346-1.36,0-2.356-.362-4.26-1.449-1.812-1-2.537-1.268-3.352-1.268-1.36,0-2.356.725-3.625,2.537l-3.624-3.353c2.265-3.9,4.258-5.346,7.067-5.346C709.586,408.322,710.582,408.685,712.485,409.772Zm-4.531,42.222h8.065l-3.9-17.033h-.271Z" transform="translate(-382.199 -408.322)" fill="#fff"/>
        <path id="Caminho_102" data-name="Caminho 102" d="M783.742,442.069v23.467c0,9.967-5.89,16.039-15.495,16.039s-15.494-6.071-15.494-16.039V442.069c0-9.967,5.889-16.037,15.494-16.037S783.742,432.1,783.742,442.069Zm-21.384.091v23.286c0,4.712,2.084,7.249,5.889,7.249s5.89-2.537,5.89-7.249V442.16c0-4.712-2.084-7.248-5.89-7.248S762.358,437.448,762.358,442.16Z" transform="translate(-400.357 -413.89)" fill="#fff"/>
      </g>
    </g>
  </g>
</svg>
