<svg xmlns="http://www.w3.org/2000/svg" viewBox="0 0 389.545 134.661"><g data-name="Grupo 31"><path data-name="Caminho 82" d="M108.049 19.907V9.598H71.395v47.977h.684l14.207-14.207.553-.553h12.639v-9.687h-2.952l4.844-4.844H86.286v-8.378z" fill="#ef4754"/><path data-name="Caminho 83" d="M304.511 39.216a6.136 6.136 0 00-1.144-.612l3.206 3.206a8.8 8.8 0 00-2.062-2.594z" fill="#ef4754"/><path data-name="Caminho 84" d="M322.335 57.575h16.515s-20.7-20.584-22.468-21.175a17.907 17.907 0 005.206-1.9 14.039 14.039 0 004.16-19.358 11.186 11.186 0 00-5.858-4.369 35.911 35.911 0 00-10.505-1.178H284.68v10.318l18.688 18.688c.391.169 18.967 18.974 18.967 18.974zm-22.768-38.29h6.513q4.057 0 5.53 1.244a4.86 4.86 0 01.54 6.349 3.922 3.922 0 01-2.405 1.506 22.365 22.365 0 01-3.927.654h-6.251z" fill="#ef4754"/><path data-name="Caminho 85" d="M299.567 57.575s-.77-24.88 0-24.557H284.68v24.557z" fill="#ef4754"/><path data-name="Caminho 86" d="M175.477 9.598v11.639h24.041l-8.921 8.921v27.417h14.825v-36.13h15.12V9.598z" fill="#ef4754"/><path data-name="Caminho 87" d="M162.048 19.285V9.598h-14.792v9.687h5.586v9.752h-5.586v9.823a8.333 8.333 0 01-2.176 6.164 9.37 9.37 0 01-12.044-.033 8.354 8.354 0 01-2.176-6.131V9.598h-14.793v28.584a28.661 28.661 0 001.375 8.111 15.213 15.213 0 003.158 5.527 17.329 17.329 0 005.089 4.136 20 20 0 006.922 1.946 65.261 65.261 0 007.641.49 29.9 29.9 0 0010.375-1.6 16.582 16.582 0 005.939-3.973 17.344 17.344 0 004.157-6.607 24.088 24.088 0 001.325-8.029v-9.145h6.714v-9.752z" fill="#ef4754"/><path data-name="Caminho 88" d="M274.932 19.285V9.598h-14.793v9.687h5.586v9.752h-5.586v9.823a8.333 8.333 0 01-2.176 6.164 9.37 9.37 0 01-12.044-.033 8.355 8.355 0 01-2.176-6.131V9.598H228.95v28.584a28.634 28.634 0 001.375 8.111 15.2 15.2 0 003.158 5.527 17.329 17.329 0 005.089 4.136 20 20 0 006.921 1.946 65.282 65.282 0 007.642.49 29.9 29.9 0 0010.375-1.6 16.582 16.582 0 005.94-3.973 17.333 17.333 0 004.156-6.607 24.071 24.071 0 001.326-8.029v-9.145h6.714v-9.752z" fill="#ef4754"/><g data-name="Grupo 29"><path data-name="Caminho 89" d="M353.679 35.051q0-7.331 2.716-10.5a9 9 0 017.2-3.175 10.438 10.438 0 014.568.965l9.192-9.192a28.944 28.944 0 00-13.727-3q-11.684 0-18.229 6.546t-6.545 18.294a27.507 27.507 0 003.077 13.582l11.789-11.789q-.04-.836-.041-1.731z" fill="#ef4754"/><path data-name="Caminho 90" d="M373.485 30.677a26.035 26.035 0 01.255 3.718q0 8.052-2.618 11.16a9.135 9.135 0 01-7.4 3.109 9.414 9.414 0 01-6.184-2.045l-9.158 9.158a19.066 19.066 0 002.4 1.4q5.318 2.585 13.435 2.585 7.986 0 13.336-2.995a20.185 20.185 0 008.182-8.378q2.83-5.383 2.831-13.794c0-6.059-1.349-11.044-4.007-14.988z" fill="#ef4754"/><path data-name="Linha 4" fill="#42e9d6" stroke="#ef4754" d="M357.543 46.62l-18.15 18.15"/><path data-name="Linha 5" fill="#42e9d6" stroke="#ef4754" d="M386.43 3.221l-18.15 18.15"/></g><g data-name="Grupo 30"><path data-name="Caminho 91" d="M14.825 32.184q0-7.332 2.716-10.506a9 9 0 017.2-3.174 10.438 10.438 0 014.568.965l9.192-9.192a28.936 28.936 0 00-13.727-3q-11.684 0-18.229 6.546T0 32.117A27.509 27.509 0 003.077 45.7l11.789-11.79q-.04-.832-.041-1.726z" fill="#ef4754"/><path data-name="Caminho 92" d="M34.631 27.811a26.037 26.037 0 01.255 3.718q0 8.051-2.618 11.16a9.137 9.137 0 01-7.4 3.109 9.41 9.41 0 01-6.184-2.045l-9.158 9.159a19.141 19.141 0 002.4 1.395q5.319 2.585 13.435 2.585 7.986 0 13.336-2.994a20.184 20.184 0 008.182-8.378q2.83-5.384 2.831-13.795c0-6.058-1.349-11.043-4.007-14.988z" fill="#ef4754"/><path data-name="Linha 6" fill="#42e9d6" stroke="#ef4754" d="M18.689 43.753L.539 61.903"/><path data-name="Linha 7" fill="#42e9d6" stroke="#ef4754" d="M47.576.354l-18.15 18.15"/></g></g><g data-name="Grupo 33"><g data-name="Grupo 32" fill="#ef4754"><path data-name="Caminho 93" d="M19.932 67.611c10.329 0 15.947 5.618 15.947 16.038v21.654c0 10.42-5.618 16.038-15.947 16.038H6.159v-53.73zm-4.168 44.85h3.806c4.621 0 6.705-2.446 6.705-7.792V84.283c0-5.346-2.084-7.793-6.705-7.793h-3.806z"/><path data-name="Caminho 94" d="M65.693 121.341l-2.084-14.407h-10.6l-2.084 14.407h-9.6l10.964-53.73h12.232l10.964 53.73zM54.276 98.235h8.064l-3.9-17.033h-.27z"/><path data-name="Caminho 95" d="M108.281 76.49v13.092h14.045v8.88h-14.045v14h17.4v8.88h-27v-53.73h27v8.879z"/><path data-name="Caminho 96" d="M147.606 67.611c10.33 0 15.947 5.618 15.947 16.038v21.654c0 10.42-5.617 16.038-15.947 16.038h-13.773v-53.73zm-4.168 44.847h3.8c4.622 0 6.705-2.446 6.705-7.792V84.283c0-5.346-2.084-7.793-6.705-7.793h-3.8z"/><path data-name="Caminho 97" d="M202.065 107.115c0 9.967-5.709 15.132-14.951 15.132-9.061 0-14.769-5.165-14.769-15.132v-39.5h9.244v39.233c0 4.621 2.084 6.343 5.436 6.343s5.437-1.722 5.437-6.343V67.611h9.6z"/><path data-name="Caminho 98" d="M240.575 81.927v5.708l-9.242-4.4v-.316c0-5.074-1.9-7.34-5.436-7.34s-5.438 2.265-5.438 6.433v24.917c0 4.168 1.9 6.433 5.438 6.433s5.436-2.265 5.436-7.34v-9.976l9.242 3.362v7.612c0 9.6-5.527 15.223-14.951 15.223-9.333 0-14.769-5.619-14.769-15.223v-25.1c0-9.6 5.437-15.222 14.769-15.222 9.424.007 14.951 5.624 14.951 15.229z"/><path data-name="Caminho 99" d="M269.481 121.341l-2.084-14.407h-10.6l-2.084 14.407h-9.6l10.964-53.73h12.233l10.963 53.73zm-11.417-23.106h8.06l-3.9-17.033h-.271z"/><path data-name="Caminho 100" d="M314.425 81.927v5.708l-9.242-4.4v-.316c0-5.074-1.9-7.34-5.436-7.34s-5.436 2.265-5.436 6.433v24.917c0 4.168 1.9 6.433 5.436 6.433s5.436-2.265 5.436-7.34v-9.976l9.242 3.362v7.612c0 8.789-4.621 14.226-12.685 15.132v2.356c4.531 0 6.705 1.541 6.705 4.8 0 3.624-2.9 5.346-9.152 5.346-5.708 0-8.7-1.9-8.7-5.617v-.544l6.705-.363v.725a2.086 2.086 0 104.169 0c0-1.993-.815-2.718-3.172-2.718h-.906v-3.988c-8.064-.815-12.685-6.251-12.685-15.132v-25.1c0-9.6 5.436-15.222 14.77-15.222 9.424.01 14.951 5.627 14.951 15.232z"/><path data-name="Caminho 101" d="M343.331 121.341l-2.084-14.407h-10.6l-2.087 14.407h-9.6l10.964-53.73h12.233l10.964 53.73zm-6.886-65.328c1.813 1 2.537 1.268 3.353 1.268 1.36 0 2.356-.725 3.625-2.537l3.623 3.353c-2.265 3.9-4.258 5.346-7.067 5.346-1.36 0-2.356-.362-4.26-1.449-1.812-1-2.537-1.268-3.352-1.268-1.36 0-2.356.725-3.625 2.537l-3.624-3.353c2.265-3.9 4.258-5.346 7.067-5.346 1.361-.001 2.357.362 4.26 1.449zm-4.531 42.222h8.065l-3.9-17.033h-.271z"/><path data-name="Caminho 102" d="M389.544 82.742v23.467c0 9.967-5.89 16.039-15.495 16.039s-15.494-6.071-15.494-16.039V82.742c0-9.967 5.889-16.037 15.494-16.037s15.495 6.068 15.495 16.037zm-21.384.091v23.286c0 4.712 2.084 7.249 5.889 7.249s5.89-2.537 5.89-7.249V82.833c0-4.712-2.084-7.248-5.89-7.248s-5.889 2.536-5.889 7.248z"/></g></g></svg>